<svg width="908" height="229" version="1.1" xmlns="http://www.w3.org/2000/svg" desc="Created with imagetracer.js version 1.2.6" ><path fill="rgb(0,0,0)" stroke="rgb(0,0,0)" stroke-width="1" opacity="0" d="M 0 0 L 907.5 0 L 908 0.5 L 908 229 L 0.5 229 L 0 228.5 L 0 0 Z M 153 62 L 149 64 L 129 84 L 127 87 L 125 88 L 104 110 Q 105 112 103 111 L 76 139 Q 77 141 75 140 L 72 144 L 53 163 L 51 163 L 53 166 L 54 165 L 124 165 L 130 161 Q 129 158 132 159 L 132 158 L 178 109 Q 177 106 180 107 L 180 106 L 202 83 Q 201 80 204 81 L 204 80 L 213 71 L 214 64 L 211 62 L 153 62 Z M 344 82 L 330 85 L 323 88 L 314 94 L 306 107 L 304 119 L 304 121 L 303 123 L 305 135 L 310 146 L 324 156 L 331 159 L 340 160 L 343 161 L 352 161 L 353 160 L 355 161 L 369 157 L 377 151 L 373 141 L 357 147 L 354 148 L 339 147 L 330 142 L 324 137 L 320 126 L 321 124 L 320 122 L 320 120 L 322 111 L 327 103 L 338 96 L 343 95 L 360 96 L 372 102 L 376 91 Q 377 88 374 89 L 374 87 L 356 82 L 344 82 Z M 664 83 L 648 88 L 644 91 L 633 103 L 630 110 L 628 121 L 629 133 L 634 145 Q 643 158 662 161 L 683 161 L 693 158 L 703 152 Q 713 145 715 131 L 715 129 L 716 127 L 715 112 L 708 98 L 702 92 L 700 89 L 688 84 Q 683 85 682 83 L 664 83 Z M 219 93 L 209 96 L 204 101 L 201 110 Q 202 119 208 124 L 156 160 L 153 162 L 151 166 L 151 167 Q 153 168 152 165 L 296 165 L 297 164 L 252 98 Q 249 93 241 94 L 239 94 Q 237 92 232 93 L 230 93 L 225 94 Q 223 92 219 93 Z M 402 99 L 398 101 L 391 102 L 381 109 Q 380 111 383 110 L 387 120 L 387 119 L 392 115 Q 398 116 400 112 L 402 113 L 412 111 L 422 114 L 424 117 L 425 122 L 421 121 L 419 122 L 408 122 L 407 123 L 403 122 L 391 126 L 387 129 L 383 134 Q 384 138 381 140 L 381 145 L 384 152 Q 383 154 386 153 L 387 156 L 392 159 Q 396 158 398 161 L 411 161 L 412 162 L 426 155 L 425 158 Q 424 160 427 159 L 429 159 L 431 160 L 433 159 L 436 160 L 441 158 L 440 154 L 440 150 L 441 146 L 440 144 Q 443 142 441 137 L 440 134 L 441 129 L 440 124 L 441 122 L 439 113 L 435 106 Q 432 107 433 104 L 419 99 L 402 99 Z M 481 99 L 472 102 Q 468 101 469 104 L 464 108 L 464 107 L 463 101 L 451 101 L 449 103 L 450 107 L 450 111 L 449 114 L 449 118 L 450 122 L 449 125 L 449 127 L 450 130 L 449 132 L 450 135 L 449 136 L 449 146 L 449 148 L 450 152 L 450 154 L 449 158 Q 448 160 451 159 L 453 159 L 462 160 L 464 160 Q 466 159 464 158 L 465 151 L 465 147 L 464 144 L 465 137 L 464 134 L 465 132 L 465 130 L 464 126 L 466 120 Q 468 114 475 113 L 481 113 L 487 115 L 489 122 L 489 124 L 490 126 L 490 152 L 490 154 L 489 159 L 496 160 L 498 159 L 506 160 L 505 159 L 505 127 L 507 120 Q 510 115 517 113 L 523 113 L 529 115 L 534 124 L 533 127 L 534 130 L 533 130 L 534 133 L 533 139 L 533 141 L 534 146 L 533 149 L 534 159 Q 535 161 537 159 L 545 160 L 547 160 L 549 158 L 549 125 L 548 124 L 548 115 L 543 105 L 537 101 L 531 100 L 529 100 L 524 99 L 522 99 L 514 101 L 503 108 L 500 105 L 492 100 L 483 99 L 481 99 Z M 753 99 L 745 102 Q 740 101 741 104 L 738 106 Q 735 105 736 108 L 735 108 L 735 101 L 721 101 L 721 159 L 723 160 L 726 159 L 727 160 L 736 160 L 736 151 L 737 149 L 737 147 L 737 137 L 736 136 Q 735 131 737 130 L 736 128 L 738 120 L 744 114 L 748 113 L 754 113 L 760 115 L 764 123 L 764 153 L 765 156 L 764 159 L 766 160 L 769 159 L 772 160 L 780 159 L 780 153 L 779 152 L 780 146 L 780 142 L 779 137 L 780 128 L 780 126 L 779 125 L 779 115 L 775 107 L 769 101 L 753 99 Z M 816 99 L 802 102 L 796 106 L 790 112 L 785 123 L 786 125 L 785 126 L 785 135 L 785 137 L 786 140 L 786 142 L 791 151 L 794 152 L 795 155 L 798 155 L 801 158 L 807 160 L 827 161 L 829 161 L 838 159 L 846 155 L 849 151 L 844 141 L 842 144 L 837 146 L 835 146 L 834 148 L 828 148 L 827 149 L 813 148 L 807 145 L 801 136 L 803 136 L 801 135 L 835 134 L 836 133 L 837 134 L 849 134 L 850 131 L 848 117 L 843 107 L 833 101 L 825 100 L 823 100 Q 821 98 816 99 Z M 585 100 L 576 105 L 574 108 L 572 106 L 573 104 L 572 101 L 558 101 L 558 131 L 558 133 L 558 144 L 557 145 L 558 146 L 558 173 L 560 174 L 561 173 L 573 173 L 572 162 L 572 160 Q 571 155 574 154 Q 577 159 584 160 L 587 161 L 600 161 L 612 156 L 620 148 L 624 135 L 624 122 L 618 110 Q 614 104 607 101 Q 598 98 585 100 Z M 163 152 L 161 154 L 163 154 L 163 152 Z " /><path fill="rgb(0,0,0)" stroke="rgb(0,0,0)" stroke-width="1" opacity="0" d="M 664.5 96 L 678.5 96 L 685.5 98 L 693 104.5 L 699 116.5 L 699 118.5 L 698 127.5 L 698 129.5 L 694 140 L 679.5 148 L 664.5 148 Q 654.6 144.9 649 137.5 Q 644.6 131.9 645 121.5 L 645 119.5 Q 646 110.2 650 105 Q 652.7 106.1 652 103.5 L 655.5 100 L 664.5 96 Z " /><path fill="rgb(0,0,0)" stroke="rgb(0,0,0)" stroke-width="1" opacity="0" d="M 813.5 111 L 818.5 112 L 821.5 111 L 831 115.5 L 834 122.5 L 802.5 123 Q 799.8 121.8 802 120.5 L 807.5 113 L 813.5 111 Z " /><path fill="rgb(0,0,0)" stroke="rgb(0,0,0)" stroke-width="1" opacity="0" d="M 589.5 112 L 597.5 113 L 605 118.5 L 608 125.5 L 608 127.5 L 607 138.5 L 600.5 146 L 590.5 149 Q 589.3 146.8 584.5 148 L 578 145 L 578 143 Q 575.3 144.1 576 141.5 L 573 136.5 L 573 134.5 Q 571.7 129.7 574 128.5 L 574 124.5 L 574 121.5 L 577 117 L 581.5 114 L 589.5 112 Z " /><path fill="rgb(0,0,0)" stroke="rgb(0,0,0)" stroke-width="1" opacity="0" d="M 410.5 132 L 412.5 133 L 413.5 132 L 425 132 Q 426 140.5 423 145 Q 417.1 150.4 403.5 149 L 398 144.5 Q 396.3 137.8 399.5 136 L 410.5 132 Z " /><path fill="rgb(191,215,104)" stroke="rgb(191,215,104)" stroke-width="1" opacity="0.9764705882352941" d="M 151.5 61 L 155.5 63 L 202.5 63 L 203.5 64 L 214 64 Q 211 75.6 201 81.5 Q 203.7 83.2 199.5 85 L 198.5 84 L 195 87.5 L 191 92.5 L 192 93.5 L 188.5 97 L 187.5 96 L 181 102.5 L 179 105.5 L 179.5 107 Q 178.2 104.8 177 107.5 L 178 108.5 L 173.5 113 L 172.5 112 L 167 117.5 L 165.5 120 L 163 121.5 L 164 123.5 Q 160.9 125.2 162.5 127 L 158.5 127 L 155 130.5 L 153 133.5 L 154.5 136 L 150.5 136 L 143 143.5 L 141 146.5 L 143 146.5 Q 141.8 149.3 140.5 147 L 125.5 162 L 121.5 164 L 53 164 L 52.5 166 L 51 163 L 54.5 161 Q 55.8 163.3 57 160.5 Q 54.8 159.3 57.5 158 Q 59.8 158.8 59 156.5 L 73 143.5 L 71.5 141 L 72.5 142 L 77 139.5 L 76 138.5 Q 81.4 135.8 79.5 133 L 80.5 134 L 86.5 128 L 88 128.5 L 99 116.5 L 98 115.5 L 102.5 111 Q 103.8 113.3 105 110.5 L 104 109.5 L 109.5 104 L 123 91.5 Q 120.3 89.8 124.5 88 Q 126.2 90.7 128 86.5 L 127.5 85 Q 128.8 87.3 130 84.5 L 129 83.5 Q 133.3 81.3 131.5 79 L 132.5 80 L 137 75.5 L 136.5 74 Q 138.3 76.8 140 72.5 L 139.5 71 L 140.5 72 L 143.5 69 L 148 66.5 Q 145.8 65.3 148.5 64 L 150 64.5 L 150.5 63 L 152.5 64 L 151.5 61 Z " /><path fill="rgb(191,215,104)" stroke="rgb(191,215,104)" stroke-width="1" opacity="0.9764705882352941" d="M 208.5 62 L 211 62.5 L 208.5 63 L 208.5 62 Z " /><path fill="rgb(21,36,56)" stroke="rgb(21,36,56)" stroke-width="1" opacity="0.8823529411764706" d="M 208.5 74 L 206.5 77 L 208.5 74 Z " /><path fill="rgb(21,36,56)" stroke="rgb(21,36,56)" stroke-width="1" opacity="0.8823529411764706" d="M 204.5 78 L 203.5 80 L 204.5 78 Z " /><path fill="rgb(21,36,56)" stroke="rgb(21,36,56)" stroke-width="1" opacity="0.8823529411764706" d="M 201.5 81 L 200.5 83 L 201.5 81 Z " /><path fill="rgb(21,36,56)" stroke="rgb(21,36,56)" stroke-width="1" opacity="0.8823529411764706" d="M 343.5 82 L 354.5 82 L 365.5 84 L 374 88.5 L 372.5 89 L 364.5 85 L 347.5 84 L 345.5 83 L 327.5 87 L 315 95.5 L 308 105.5 L 306 111.5 L 305 128.5 L 308 139.5 L 316.5 150 Q 324.5 156.5 336.5 159 L 358.5 159 Q 368.5 157 375 151.5 Q 374.8 145.8 371.5 143 L 356.5 149 L 341.5 149 L 332.5 146 L 324 138.5 Q 318.3 131.7 319 118.5 L 322 107.5 L 329.5 99 Q 337.6 92.1 354.5 94 L 366.5 97 L 371.5 100 L 375.5 89 L 376 90.5 L 371.5 101 L 359.5 96 L 342.5 95 L 337.5 96 L 327 102.5 L 321 113.5 L 320 125.5 Q 322 137.5 330.5 143 L 338.5 147 L 353.5 148 L 356.5 147 L 364.5 145 L 370.5 141 L 373 141 L 377 150.5 L 370.5 156 L 359.5 160 L 342.5 161 L 331.5 159 L 318.5 153 L 309 143.5 Q 301.8 133.7 304 114.5 Q 307.5 99 318.5 91 L 329.5 85 L 343.5 82 Z " /><path fill="rgb(21,36,56)" stroke="rgb(21,36,56)" stroke-width="1" opacity="0.8823529411764706" d="M 663.5 83 L 681.5 83 L 686.5 84 Q 700.4 87.6 708 97.5 L 715 111.5 L 716 126.5 L 712 140.5 L 702.5 152 L 685.5 160 L 680.5 161 L 663.5 161 L 651.5 158 L 643.5 154 L 634 144.5 L 629 132.5 L 628 120.5 L 630 109.5 L 633 102.5 L 643.5 91 Q 651.5 85 663.5 83 Z M 665 84 Q 650 86 642 94 Q 635 99 632 108 L 629 121 Q 629 137 636 146 L 650 156 L 666 160 L 686 159 L 702 151 Q 711 144 714 131 L 714 113 L 708 100 Q 696 82 665 84 Z " /><path fill="rgb(21,36,56)" stroke="rgb(21,36,56)" stroke-width="1" opacity="0.8823529411764706" d="M 193.5 90 L 191.5 93 L 193.5 90 Z " /><path fill="rgb(21,36,56)" stroke="rgb(21,36,56)" stroke-width="1" opacity="0.8823529411764706" d="M 241.5 94 L 245 94.5 L 241.5 95 L 241.5 94 Z " /><path fill="rgb(21,36,56)" stroke="rgb(21,36,56)" stroke-width="1" opacity="0.8823529411764706" d="M 247.5 95 L 253 99.5 L 248.5 96 L 247.5 95 Z " /><path fill="rgb(21,36,56)" stroke="rgb(21,36,56)" stroke-width="1" opacity="0.8823529411764706" d="M 664.5 95 L 683.5 96 L 695 104.5 L 700 115.5 L 700 128.5 Q 697.6 139.6 689.5 145 Q 681.7 150.7 667.5 150 Q 654.3 147.7 648 138.5 Q 642.1 130.9 644 115.5 Q 646.4 105.4 653.5 100 L 664.5 95 Z M 665 96 L 656 100 Q 648 106 645 117 Q 643 131 649 138 Q 654 145 665 148 L 680 148 L 692 142 Q 697 137 699 129 L 699 117 L 694 106 L 686 98 L 679 96 L 665 96 Z " /><path fill="rgb(21,36,56)" stroke="rgb(21,36,56)" stroke-width="1" opacity="0.8823529411764706" d="M 209.5 96 L 208.5 98 L 209.5 96 Z " /><path fill="rgb(21,36,56)" stroke="rgb(21,36,56)" stroke-width="1" opacity="0.8823529411764706" d="M 404.5 99 L 422.5 100 L 435 106 L 440 116.5 L 440 159 L 430.5 160 L 426 159 L 426.5 157 L 427.5 158 L 439 158 L 439 116.5 L 436 109.5 L 432.5 106 L 421.5 101 L 406.5 100 L 405.5 101 L 393.5 102 L 383 108.5 L 387.5 117 L 395.5 112 L 404.5 110 L 414.5 110 Q 421.9 111.1 425 116.5 L 426 119.5 L 425 119.5 L 421.5 114 L 413.5 111 L 405.5 111 L 396.5 113 L 386.5 118 L 382 107.5 L 390.5 102 L 404.5 99 Z " /><path fill="rgb(21,36,56)" stroke="rgb(21,36,56)" stroke-width="1" opacity="0.8823529411764706" d="M 484.5 99 Q 497.2 100.3 503.5 108 L 509.5 103 L 517.5 100 L 525.5 99 L 525.5 100 L 512.5 103 L 501.5 109 L 499 105 Q 493.8 101 484.5 100 L 473.5 102 L 464.5 109 L 470.5 102 L 484.5 99 Z " /><path fill="rgb(21,36,56)" stroke="rgb(21,36,56)" stroke-width="1" opacity="0.8823529411764706" d="M 205.5 100 L 204.5 102 L 205.5 100 Z " /><path fill="rgb(21,36,56)" stroke="rgb(21,36,56)" stroke-width="1" opacity="0.8823529411764706" d="M 528.5 100 Q 540.3 100.7 545 108.5 L 548 116.5 L 548 159 L 540.5 160 L 534 159 L 534.5 124 L 535 158 L 546.5 158 L 547 157.5 L 547 120.5 Q 544.5 119 546 113.5 L 539.5 104 L 532.5 101 L 528.5 101 L 528.5 100 Z " /><path fill="rgb(21,36,56)" stroke="rgb(21,36,56)" stroke-width="1" opacity="0.8823529411764706" d="M 586.5 100 L 602.5 100 Q 612.6 102.4 618 109.5 L 624 122.5 L 624 134.5 L 623 134.5 Q 623.9 113.1 611.5 105 L 602.5 101 L 587.5 101 L 579.5 104 L 580.5 102 L 586.5 100 Z " /><path fill="rgb(21,36,56)" stroke="rgb(21,36,56)" stroke-width="1" opacity="0.8823529411764706" d="M 749.5 100 Q 770.2 96.8 776 108.5 L 779 115.5 L 779 159 L 771.5 160 L 766.5 159 L 765 159.5 L 765 126.5 L 762 117.5 L 758.5 114 Q 754.7 111.3 746.5 113 Q 740.4 114.4 738 119.5 L 736 126.5 L 736 160 L 733.5 159 L 731.5 160 Q 729.8 157.3 723.5 159 Q 722.3 161.3 721 158.5 L 721 101.5 L 721.5 101 L 735 101 L 734.5 107 L 734 103 L 723 103 L 723 132.5 L 722 135.5 L 723 138.5 L 722 141.5 L 722 158 L 735 158 L 735 125.5 L 737 118.5 L 741.5 114 Q 745.6 110.1 754.5 111 Q 760.3 112.3 763 116.5 L 766 124.5 L 766 158 L 777.5 158 L 778 157.5 L 778 117.5 L 775 109.5 L 771 104 Q 764.6 99.2 750.5 101 L 741.5 104 L 735.5 110 L 735 108 L 737 108 Q 735.9 105.3 738.5 106 L 742.5 102 L 749.5 100 Z " /><path fill="rgb(21,36,56)" stroke="rgb(21,36,56)" stroke-width="1" opacity="0.8823529411764706" d="M 809.5 100 L 828.5 100 Q 838.6 102.4 844 109.5 L 849 121.5 L 849 133 L 801.5 133 Q 800.5 133 801 137.5 L 807.5 146 Q 814.4 151.1 828.5 149 L 832.5 148 L 832.5 149 L 829.5 150 L 814.5 150 L 804 144.5 L 800 137.5 L 800 132 L 847.5 132 L 848 131.5 L 848 123.5 L 844 111.5 L 837.5 105 L 827.5 101 L 809.5 101 Q 796.9 103.4 791 112.5 L 787 120.5 L 786 134.5 L 787 139.5 L 786 139.5 L 785 125.5 L 790 111.5 L 794.5 107 Q 800.2 101.7 809.5 100 Z " /><path fill="rgb(21,36,56)" stroke="rgb(21,36,56)" stroke-width="1" opacity="0.8823529411764706" d="M 253.5 101 L 256 104.5 L 254 103.5 L 253.5 101 Z " /><path fill="rgb(21,36,56)" stroke="rgb(21,36,56)" stroke-width="1" opacity="0.8823529411764706" d="M 450 101 L 463 101 L 463 105.5 L 462 105.5 Q 463.5 101.1 460.5 102 L 458.5 102 L 455.5 103 L 453.5 103 L 451 103.5 L 451 158 L 463 158 L 463 124.5 Q 464.4 116.4 470.5 113 L 477.5 111 L 482.5 112 L 489 116.5 L 491 121.5 L 491 158 L 503 158 L 503 129.5 L 505 120.5 L 510.5 114 L 517.5 111 L 521.5 111 Q 529.1 112.8 533 118.5 L 534 122.5 L 533 122.5 L 533 120.5 L 528.5 115 Q 524.1 111.9 515.5 113 L 508 117.5 L 505 125.5 L 505 159 L 490 159 L 490 122.5 L 487 115 Q 482.8 112 473.5 113 L 467 117.5 L 464 125.5 L 464 159 L 450.5 159 L 450 158.5 L 450 101 Z " /><path fill="rgb(21,36,56)" stroke="rgb(21,36,56)" stroke-width="1" opacity="0.8823529411764706" d="M 558 101 L 572 101 L 572 107.5 L 571 107.5 L 571 103 L 564.5 103 L 562.5 103 L 559.5 102 L 558.5 173 L 558 101 Z " /><path fill="rgb(21,36,56)" stroke="rgb(21,36,56)" stroke-width="1" opacity="0.8823529411764706" d="M 180.5 104 L 179.5 106 L 180.5 104 Z " /><path fill="rgb(21,36,56)" stroke="rgb(21,36,56)" stroke-width="1" opacity="0.8823529411764706" d="M 577.5 104 L 575.5 107 L 574 106.5 L 577.5 104 Z " /><path fill="rgb(21,36,56)" stroke="rgb(21,36,56)" stroke-width="1" opacity="0.8823529411764706" d="M 202.5 105 L 203 113.5 L 202 113.5 L 202.5 105 Z " /><path fill="rgb(21,36,56)" stroke="rgb(21,36,56)" stroke-width="1" opacity="0.8823529411764706" d="M 256.5 106 L 267 120.5 L 264 118.5 L 256.5 106 Z " /><path fill="rgb(21,36,56)" stroke="rgb(21,36,56)" stroke-width="1" opacity="0.8823529411764706" d="M 812.5 110 L 823.5 110 L 832 114 L 835 120.5 L 835 124 L 800.5 124 L 800 122.5 L 801.5 123 L 833.5 123 L 834 121.5 Q 832.8 115.8 828.5 113 L 823.5 111 L 812.5 111 Q 806 112.5 803 117.5 L 801.5 121 L 801 118.5 L 805.5 113 L 812.5 110 Z " /><path fill="rgb(21,36,56)" stroke="rgb(21,36,56)" stroke-width="1" opacity="0.8823529411764706" d="M 586.5 111 L 594.5 111 Q 601.3 112.3 605 116.5 Q 610.8 122.2 609 135.5 Q 607.2 143.2 601.5 147 L 593.5 150 L 587.5 150 L 580.5 148 L 575 143.5 L 572 137.5 L 572 123.5 L 577.5 115 L 586.5 111 Z M 590 112 L 580 115 Q 574 118 573 126 Q 571 136 575 142 L 584 148 Q 589 147 591 149 L 601 146 Q 606 143 608 136 Q 610 124 605 119 L 598 113 L 590 112 Z " /><path fill="rgb(21,36,56)" stroke="rgb(21,36,56)" stroke-width="1" opacity="0.8823529411764706" d="M 97.5 117 L 96.5 119 L 97.5 117 Z " /><path fill="rgb(21,36,56)" stroke="rgb(21,36,56)" stroke-width="1" opacity="0.8823529411764706" d="M 267.5 122 L 268.5 124 L 267.5 122 Z " /><path fill="rgb(21,36,56)" stroke="rgb(21,36,56)" stroke-width="1" opacity="0.8823529411764706" d="M 407.5 122 L 426 122.5 L 407.5 123 L 407.5 122 Z " /><path fill="rgb(21,36,56)" stroke="rgb(21,36,56)" stroke-width="1" opacity="0.8823529411764706" d="M 400.5 123 L 405 123.5 Q 392.8 124.8 386 131.5 Q 381.5 136 383 146.5 Q 384.5 153 389.5 156 Q 396.7 161.3 410 160.5 L 399.5 161 L 387 156 L 382 147.5 L 382 137.5 Q 383.8 130.3 389.5 127 L 400.5 123 Z " /><path fill="rgb(21,36,56)" stroke="rgb(21,36,56)" stroke-width="1" opacity="0.8823529411764706" d="M 90.5 124 L 89.5 126 L 90.5 124 Z " /><path fill="rgb(21,36,56)" stroke="rgb(21,36,56)" stroke-width="1" opacity="0.8823529411764706" d="M 269.5 125 L 296 162.5 L 294 161.5 L 272 130.5 L 269.5 125 Z " /><path fill="rgb(21,36,56)" stroke="rgb(21,36,56)" stroke-width="1" opacity="0.8823529411764706" d="M 203.5 127 L 200.5 131 L 191.5 137 L 192.5 135 L 203.5 127 Z " /><path fill="rgb(21,36,56)" stroke="rgb(21,36,56)" stroke-width="1" opacity="0.8823529411764706" d="M 156.5 130 L 155.5 132 L 156.5 130 Z " /><path fill="rgb(21,36,56)" stroke="rgb(21,36,56)" stroke-width="1" opacity="0.8823529411764706" d="M 411.5 131 L 426 131.5 L 411.5 132 L 411.5 131 Z " /><path fill="rgb(21,36,56)" stroke="rgb(21,36,56)" stroke-width="1" opacity="0.8823529411764706" d="M 405.5 132 L 410 132.5 Q 401.7 132.7 398 137.5 Q 397.1 144.3 399 147 Q 403.9 150.7 415.5 149 L 423 144.5 L 426.5 134 L 427 138.5 Q 425.5 145 420.5 148 L 407.5 151 L 400.5 149 L 397 145.5 L 396 143.5 L 396 141.5 Q 396.7 135.2 401.5 133 L 405.5 132 Z " /><path fill="rgb(21,36,56)" stroke="rgb(21,36,56)" stroke-width="1" opacity="0.8823529411764706" d="M 622.5 136 L 623 139.5 Q 619.9 150.4 611.5 156 L 603.5 160 L 586.5 161 L 579.5 159 L 572 154 L 572 172.5 Q 571.9 173.6 566.5 173 L 566.5 172 Q 571 172.5 571 171.5 L 571 154.5 L 572.5 152 L 580.5 158 L 595.5 160 L 605.5 158 L 616 150.5 Q 621.3 145.3 622.5 136 Z " /><path fill="rgb(21,36,56)" stroke="rgb(21,36,56)" stroke-width="1" opacity="0.8823529411764706" d="M 188.5 138 L 187.5 140 L 184.5 142 L 186.5 139 L 188.5 138 Z " /><path fill="rgb(21,36,56)" stroke="rgb(21,36,56)" stroke-width="1" opacity="0.8823529411764706" d="M 787.5 141 Q 790.3 149.2 796.5 154 L 807.5 159 L 826.5 160 L 838.5 157 L 847.5 152 L 846.5 154 L 832.5 160 L 812.5 161 L 799.5 157 L 790 148.5 Q 785.8 145.9 787.5 141 Z " /><path fill="rgb(21,36,56)" stroke="rgb(21,36,56)" stroke-width="1" opacity="0.8823529411764706" d="M 182.5 142 L 181.5 144 L 182.5 142 Z " /><path fill="rgb(21,36,56)" stroke="rgb(21,36,56)" stroke-width="1" opacity="0.8823529411764706" d="M 843.5 142 L 849 150.5 L 846 148.5 L 843.5 144 L 842 143.5 L 843.5 142 Z " /><path fill="rgb(21,36,56)" stroke="rgb(21,36,56)" stroke-width="1" opacity="0.8823529411764706" d="M 143.5 144 L 141.5 147 L 143.5 144 Z " /><path fill="rgb(21,36,56)" stroke="rgb(21,36,56)" stroke-width="1" opacity="0.8823529411764706" d="M 179.5 144 L 178.5 146 L 179.5 144 Z " /><path fill="rgb(21,36,56)" stroke="rgb(21,36,56)" stroke-width="1" opacity="0.8823529411764706" d="M 840.5 144 L 839.5 146 L 834.5 148 L 834.5 147 L 840.5 144 Z " /><path fill="rgb(21,36,56)" stroke="rgb(21,36,56)" stroke-width="1" opacity="0.8823529411764706" d="M 225.5 145 L 228 146.5 L 228.5 145 L 233.5 148 L 235.5 148 L 240 149.5 L 239 151.5 L 241 151.5 Q 240.2 154.1 243.5 153 L 246 154 L 248.5 160 L 250.5 160 L 252.5 159 Q 253.6 161.8 257 161 L 256.5 163 L 243.5 163 L 243.5 164 L 296 164.5 L 153.5 165 L 153.5 164 L 201 163.5 L 192.5 163 L 191.5 162 L 190 162.5 L 193.5 158 L 214.5 148 L 225.5 145 Z M 240 163 L 240 164 L 242 164 L 240 163 Z " /><path fill="rgb(21,36,56)" stroke="rgb(21,36,56)" stroke-width="1" opacity="0.8823529411764706" d="M 176.5 146 L 174.5 149 L 172.5 150 L 173.5 148 L 176.5 146 Z " /><path fill="rgb(21,36,56)" stroke="rgb(21,36,56)" stroke-width="1" opacity="0.8823529411764706" d="M 138.5 149 L 137.5 151 L 138.5 149 Z " /><path fill="rgb(21,36,56)" stroke="rgb(21,36,56)" stroke-width="1" opacity="0.8823529411764706" d="M 170.5 150 L 169.5 152 L 170.5 150 Z " /><path fill="rgb(21,36,56)" stroke="rgb(21,36,56)" stroke-width="1" opacity="0.8823529411764706" d="M 167.5 152 L 166.5 154 L 159.5 159 L 162.5 155 L 167.5 152 Z " /><path fill="rgb(21,36,56)" stroke="rgb(21,36,56)" stroke-width="1" opacity="0.8823529411764706" d="M 425.5 153 L 423.5 156 Q 419.2 159.7 411.5 160 L 411.5 159 Q 420.5 158 425.5 153 Z " /><path fill="rgb(21,36,56)" stroke="rgb(21,36,56)" stroke-width="1" opacity="0.8823529411764706" d="M 130.5 158 L 129.5 160 L 130.5 158 Z " /><path fill="rgb(21,36,56)" stroke="rgb(21,36,56)" stroke-width="1" opacity="0.8823529411764706" d="M 69.5 164 L 123 164.5 L 69.5 165 L 69.5 164 Z " /><path fill="rgb(21,36,56)" stroke="rgb(21,36,56)" stroke-width="1" opacity="0.8823529411764706" d="M 561.5 172 L 565 172.5 L 561.5 173 L 561.5 172 Z " /><path fill="rgb(65,86,121)" stroke="rgb(65,86,121)" stroke-width="1" opacity="0.9294117647058824" d="M 155.5 62 L 182 62.5 L 155.5 63 L 155.5 62 Z " /><path fill="rgb(65,86,121)" stroke="rgb(65,86,121)" stroke-width="1" opacity="0.9294117647058824" d="M 184.5 62 L 208 62.5 L 184.5 63 L 184.5 62 Z " /><path fill="rgb(65,86,121)" stroke="rgb(65,86,121)" stroke-width="1" opacity="0.9294117647058824" d="M 209.5 63 L 212 63.5 L 209.5 64 L 209.5 63 Z " /><path fill="rgb(65,86,121)" stroke="rgb(65,86,121)" stroke-width="1" opacity="0.9294117647058824" d="M 149.5 64 L 147.5 67 L 144.5 69 L 146.5 66 L 149.5 64 Z " /><path fill="rgb(65,86,121)" stroke="rgb(65,86,121)" stroke-width="1" opacity="0.9294117647058824" d="M 212.5 65 L 214 68.5 L 209.5 74 L 212 70.5 L 213 66.5 L 212.5 65 Z " /><path fill="rgb(65,86,121)" stroke="rgb(65,86,121)" stroke-width="1" opacity="0.9294117647058824" d="M 135.5 78 L 121.5 93 L 135.5 78 Z " /><path fill="rgb(65,86,121)" stroke="rgb(65,86,121)" stroke-width="1" opacity="0.9294117647058824" d="M 199.5 83 L 199 84.5 L 194.5 90 L 197 86.5 L 199.5 83 Z " /><path fill="rgb(65,86,121)" stroke="rgb(65,86,121)" stroke-width="1" opacity="0.9294117647058824" d="M 345.5 83 L 353.5 85 L 355.5 85 L 359 84 Q 357.9 86.7 360.5 86 L 365 85 Q 363.9 87.7 366.5 87 L 368 86.5 Q 367.3 88.8 369.5 88 Q 371 85.5 372.5 89 Q 375.8 87.9 375 90.5 L 373 90.5 L 374 93.5 L 372 93.5 L 373 95.5 L 372 99.5 Q 374.3 100.8 371.5 102 L 371 99.5 Q 371.8 97.3 369.5 98 L 368 98.5 L 368.5 97 L 366.5 96 L 364.5 97 L 360 96 Q 361.3 93 357.5 94 L 355.5 95 L 354.5 94 Q 345.5 95 341 93 Q 342.1 95.7 339.5 95 L 337 94 Q 338.3 97 334.5 96 L 332.5 96 L 331 96.5 L 331.5 100 L 329.5 98 L 326 101.5 L 322 109 Q 319.3 107.9 320 110.5 L 321 113 Q 318.3 111.9 319 114.5 L 320 118 L 318 118.5 L 319 120.5 L 318 122.5 L 319 124.5 L 319 128.5 Q 317.9 131.8 320.5 131 L 320 132.5 L 320.5 134 L 322 133.5 L 321 135.5 L 322.5 138 L 324 137.5 L 323 138.5 L 329.5 145 Q 330.8 142.8 332 145.5 Q 331.3 147.8 333.5 147 L 335 146.5 Q 334.3 148.8 336.5 148 L 338 147.5 L 337.5 149 L 341 148 Q 339.7 151.3 344.5 150 L 345.5 149 L 353.5 149 L 357.5 150 L 357.5 148 L 360.5 149 L 360.5 147 L 363.5 148 L 363.5 146 L 366.5 147 L 366.5 145 L 368.5 146 L 368.5 144 L 372 145.5 L 373.5 149 Q 376.1 148.2 375 151.5 Q 373.7 154.3 372.5 152 L 371 152.5 L 371.5 154 L 369.5 153 L 369.5 155 L 368 154.5 L 367.5 156 L 365.5 155 L 365.5 157 L 362.5 156 L 363.5 159 Q 362.8 156.3 358.5 157 L 358.5 159 L 356.5 158 L 338.5 158 L 336.5 159 L 336.5 157 L 332.5 158 L 332.5 156 L 329.5 157 L 329 155 L 323.5 153 L 322 153.5 L 322.5 152 L 320.5 153 L 319.5 150 L 317.5 149 L 316.5 150 L 312.5 146 Q 311.2 148.3 310 145.5 L 313 144.5 L 310 142.5 L 310 140.5 L 309.5 139 L 308 139.5 L 309 137.5 L 307 137.5 L 308 135.5 Q 304.5 134 307 132.5 L 306.5 128 L 305 128.5 Q 307.3 125.3 306 118.5 L 305 116 Q 308.3 117.3 307 112.5 L 306 111.5 Q 309.1 109.8 307.5 108 Q 309.8 108.8 309 106.5 L 308.5 105 L 310 105.5 L 313 100.5 L 312.5 99 L 315 97.5 L 314 94.5 L 316.5 94 L 321 92.5 L 320.5 91 Q 321.8 93.3 323 90.5 L 322 88.5 L 324.5 90 L 326 89.5 L 325.5 88 L 327.5 87 L 330 88 L 330.5 86 L 333 87 L 333.5 85 L 337.5 86 L 337.5 84 L 346.5 85 L 346.5 84 L 345.5 83 Z M 347 150 L 347 151 L 350 151 L 347 150 Z " /><path fill="rgb(65,86,121)" stroke="rgb(65,86,121)" stroke-width="1" opacity="0.9294117647058824" d="M 664.5 84 L 676.5 85 L 680 84 Q 678.8 87 682.5 86 L 686 85 Q 684.9 87.7 687.5 87 L 689 86.5 L 689.5 88 L 691.5 87 L 694.5 88 L 696 87.5 L 694.5 90 L 696.5 89 L 699.5 93 L 701 92.5 L 706.5 100 L 708 99.5 L 708 101.5 L 708.5 103 L 710 102.5 L 709 104.5 L 710.5 107 L 712 106.5 L 711 109.5 L 712.5 114 L 713.5 112 L 714 113.5 L 713 114.5 L 712 133.5 L 712.5 135 L 711 134.5 L 710 138.5 L 710.5 140 L 709 139.5 L 711 142.5 L 708.5 141 L 707 142.5 L 701 149.5 L 701.5 151 L 699.5 151 Q 695.5 150.5 695 153.5 L 696.5 156 L 693.5 154 L 694.5 157 L 690.5 155 L 683.5 158 L 661.5 158 L 650.5 155 L 649 155.5 L 649.5 154 L 647.5 155 L 647.5 153 L 642.5 150 Q 640.8 152.7 639 148.5 Q 641.2 147.3 638.5 146 Q 637.3 148.3 636 145.5 L 636.5 144 L 634 142.5 L 635 140.5 L 633.5 138 L 632 138.5 L 633 135.5 L 631 135.5 L 632 131.5 L 631 131.5 L 630.5 133 L 630 131.5 L 631 130.5 L 631 117.5 L 630 115.5 L 631 115.5 L 631.5 117 L 632 111.5 L 631.5 110 L 633 110.5 L 632 107.5 L 634 107.5 L 633 105.5 L 635 105.5 L 634 103.5 L 636 102.5 L 635.5 101 L 637 101.5 L 639 98.5 L 638 97.5 L 641.5 94 Q 642.8 96.3 644 93.5 L 644.5 92 Q 645.8 94.3 647 91.5 L 647.5 90 L 649 90.5 L 649.5 89 L 651 89.5 L 651.5 88 L 653 88.5 Q 652.2 85.9 655.5 87 L 657.5 86 L 659.5 87 L 659.5 85 L 664.5 86 L 664.5 84 Z M 664 94 L 664 96 L 662 95 Q 660 98 659 96 L 658 98 L 657 97 L 656 99 L 653 100 L 648 105 L 649 106 L 648 105 L 646 109 L 646 111 Q 647 113 644 112 L 645 115 L 644 114 L 642 119 Q 641 127 644 131 L 644 130 L 645 130 L 644 134 L 646 133 L 645 135 L 648 141 Q 649 143 651 141 Q 649 144 654 146 L 656 145 L 656 147 L 658 146 L 657 148 L 664 150 L 667 149 L 666 151 L 671 152 L 685 149 L 685 147 L 687 148 L 686 145 L 689 147 L 689 145 L 691 146 L 692 145 L 691 142 Q 693 138 695 142 L 697 140 L 696 138 L 698 138 L 700 137 L 698 134 L 700 134 L 699 131 L 700 129 L 701 131 L 702 128 L 700 124 L 701 120 L 701 122 L 702 122 L 701 115 L 699 115 L 700 112 L 699 112 L 699 111 L 698 108 L 696 108 L 697 106 L 696 106 L 696 105 L 691 99 L 690 100 L 688 98 L 687 98 L 686 97 L 685 97 L 682 95 L 680 96 L 680 94 L 676 95 Q 668 96 664 94 Z M 699 139 L 698 142 L 699 142 L 699 139 Z M 697 141 L 695 144 L 697 144 Q 700 143 697 141 Z " /><path fill="rgb(65,86,121)" stroke="rgb(65,86,121)" stroke-width="1" opacity="0.9294117647058824" d="M 190.5 93 L 188.5 96 L 190.5 93 Z " /><path fill="rgb(65,86,121)" stroke="rgb(65,86,121)" stroke-width="1" opacity="0.9294117647058824" d="M 119.5 94 L 110.5 104 L 119.5 94 Z " /><path fill="rgb(65,86,121)" stroke="rgb(65,86,121)" stroke-width="1" opacity="0.9294117647058824" d="M 214.5 94 L 213.5 96 L 214.5 94 Z " /><path fill="rgb(65,86,121)" stroke="rgb(65,86,121)" stroke-width="1" opacity="0.9294117647058824" d="M 217.5 94 L 241 94.5 L 217.5 95 L 217.5 94 Z " /><path fill="rgb(65,86,121)" stroke="rgb(65,86,121)" stroke-width="1" opacity="0.9294117647058824" d="M 245.5 94 L 246.5 96 L 245.5 94 Z " /><path fill="rgb(65,86,121)" stroke="rgb(65,86,121)" stroke-width="1" opacity="0.9294117647058824" d="M 186 97 L 188 97.5 L 181 103.5 L 186 97 Z " /><path fill="rgb(65,86,121)" stroke="rgb(65,86,121)" stroke-width="1" opacity="0.9294117647058824" d="M 207.5 97 L 208 98.5 L 205.5 100 L 207.5 97 Z " /><path fill="rgb(65,86,121)" stroke="rgb(65,86,121)" stroke-width="1" opacity="0.9294117647058824" d="M 251.5 99 L 254 100.5 L 252.5 101 L 251.5 99 Z " /><path fill="rgb(65,86,121)" stroke="rgb(65,86,121)" stroke-width="1" opacity="0.9294117647058824" d="M 401.5 99 L 404 99.5 L 401.5 100 L 401.5 99 Z " /><path fill="rgb(65,86,121)" stroke="rgb(65,86,121)" stroke-width="1" opacity="0.9294117647058824" d="M 414.5 99 L 419 99.5 L 414.5 100 L 414.5 99 Z " /><path fill="rgb(65,86,121)" stroke="rgb(65,86,121)" stroke-width="1" opacity="0.9294117647058824" d="M 482.5 99 L 486 100.5 L 484.5 101 L 482.5 99 Z " /><path fill="rgb(65,86,121)" stroke="rgb(65,86,121)" stroke-width="1" opacity="0.9294117647058824" d="M 752.5 99 L 755 99.5 L 752.5 100 L 752.5 99 Z " /><path fill="rgb(65,86,121)" stroke="rgb(65,86,121)" stroke-width="1" opacity="0.9294117647058824" d="M 815.5 99 L 822 99.5 L 815.5 100 L 815.5 99 Z " /><path fill="rgb(65,86,121)" stroke="rgb(65,86,121)" stroke-width="1" opacity="0.9294117647058824" d="M 406.5 100 L 413 100.5 L 406.5 101 L 406.5 100 Z " /><path fill="rgb(65,86,121)" stroke="rgb(65,86,121)" stroke-width="1" opacity="0.9294117647058824" d="M 491.5 100 L 490.5 102 L 489 101.5 L 491.5 100 Z " /><path fill="rgb(65,86,121)" stroke="rgb(65,86,121)" stroke-width="1" opacity="0.9294117647058824" d="M 523.5 100 L 528 100.5 L 523.5 101 L 523.5 100 Z " /><path fill="rgb(65,86,121)" stroke="rgb(65,86,121)" stroke-width="1" opacity="0.9294117647058824" d="M 477.5 101 L 478.5 102 L 487.5 102 L 491.5 104 L 494 102.5 L 493.5 104 L 496.5 102 L 495 104.5 L 496.5 106 L 499 104.5 L 498.5 103 Q 501.8 104.8 498 106.5 L 500 108.5 L 500.5 110 L 502.5 109 L 503.5 112 L 505.5 109 L 509 106.5 L 508.5 105 L 511.5 106 L 511.5 105 L 510 104.5 L 512.5 103 L 512.5 105 L 520.5 102 L 528.5 102 L 536.5 104 L 538 103.5 L 537.5 105 L 539.5 104 Q 542.3 105.3 540 106.5 L 545 115.5 L 545 157 L 538 156 L 539 152.5 L 537 151.5 L 536.5 156 L 536 128.5 L 537 126.5 L 533.5 117 L 532.5 118 Q 530.8 114.9 529 116.5 L 532 115.5 Q 532.8 113.3 530.5 114 Q 529.1 110.4 523.5 111 L 522 111.5 L 522.5 110 L 515 110.5 L 517 111.5 L 515.5 112 L 513.5 111 L 513.5 113 L 511.5 112 L 512.5 115 L 509.5 113 L 508 114.5 Q 511.7 116.3 508.5 118 L 505.5 117 L 504 118.5 L 502.5 125 L 501.5 122 L 501 125.5 L 502 126.5 L 502 151.5 L 501 151.5 L 500 148.5 L 501 145.5 Q 502.5 140 500 138.5 L 501 135.5 L 500 130.5 L 501 128 Q 497 126.6 499 133.5 L 497.5 133 L 495.5 134 L 494 133.5 L 493.5 135 L 492 131.5 L 493 129.5 L 492.5 128 Q 494.8 127.3 494 129.5 L 495 129.5 Q 494.1 126.5 498.5 128 L 498.5 127 Q 488.8 130.3 492 120.5 L 490 120.5 L 491 117.5 L 489 117.5 L 490 116.5 L 486.5 113 L 484.5 113 L 478 111.5 L 482 110.5 L 473.5 110 L 467 112.5 Q 472.8 115.3 467.5 118 L 466 116.5 L 467.5 114 L 465 115.5 L 464 118.5 L 464.5 120 L 463 119.5 L 462 125 L 457.5 126 L 455 124.5 L 459 124 L 458.5 121 L 453 123.5 L 453 125.5 Q 452.3 127.8 454.5 127 L 456.5 127 L 458 127.5 L 455.5 129 L 452 128 L 452 110.5 L 453 104 L 459 104 L 459 112 L 461.5 112 L 464 110.5 L 462 110 L 462 106 L 463.5 106 L 464.5 107 L 467 105.5 Q 464.8 106.8 467.5 108 L 478 102.5 L 477.5 101 Z M 464 113 L 463 117 L 464 117 L 464 113 Z M 455 116 L 455 118 L 454 117 L 453 120 L 456 120 Q 460 121 459 119 L 458 119 L 456 119 L 458 118 Q 459 115 455 116 Z M 500 122 L 499 125 L 500 125 L 500 122 Z M 538 138 L 537 144 L 539 144 L 538 138 Z " /><path fill="rgb(65,86,121)" stroke="rgb(65,86,121)" stroke-width="1" opacity="0.9294117647058824" d="M 536.5 101 L 535.5 103 L 536.5 101 Z " /><path fill="rgb(65,86,121)" stroke="rgb(65,86,121)" stroke-width="1" opacity="0.9294117647058824" d="M 587.5 101 L 594.5 102 L 596.5 102 L 602.5 101 L 602.5 102 L 601 102.5 L 606.5 104 L 608 103.5 Q 607.3 105.8 609.5 105 L 610.5 106 L 613 104.5 L 612 105.5 L 614.5 110 Q 616.3 107.2 618 111.5 L 617.5 113 L 619 113.5 L 619 115.5 L 619.5 118 L 621 117.5 L 620 120.5 L 622 120.5 Q 619.3 122.2 621 128.5 L 622 128.5 L 622.5 124 L 623 129.5 L 623 131.5 L 622.5 136 L 621.5 132 L 619 143.5 L 619.5 145 L 618 144.5 L 619 146.5 L 616 147.5 L 615 149.5 Q 617.3 150.8 614.5 152 L 612.5 152 L 609 154.5 L 609.5 156 L 607.5 155 L 607.5 157 L 605.5 156 L 605.5 158 L 601.5 157 L 601.5 159 L 600.5 158 L 584.5 158 L 583 158.5 L 583.5 157 L 579.5 156 L 577 157.5 Q 580.8 155.8 577.5 154 L 575.5 155 L 572 152.5 L 573 154.5 L 571 153.5 L 570.5 151 L 569 162.5 L 569 164.5 L 570 171 L 563 170.5 L 566 168.5 L 567 166.5 L 563 165 L 564 162.5 Q 560.5 161 563 159.5 L 562 155.5 L 562.5 152 Q 559.9 151.2 561 154.5 L 560 154.5 L 560 136.5 L 561 134.5 L 560 131.5 L 561 128.5 L 560 127.5 L 560 104 L 563.5 102 Q 565 105.3 570 104 L 570.5 112 L 572.5 106 L 573.5 108 L 575.5 108 L 578 106.5 L 578 104.5 L 578.5 103 L 583.5 104 L 583.5 102 L 587.5 103 L 587.5 101 Z M 585 110 L 586 111 L 586 112 L 582 111 L 582 113 L 580 112 L 580 116 L 579 117 L 578 114 L 574 118 L 576 120 L 574 118 L 572 121 L 573 123 L 572 122 Q 569 125 570 131 L 568 132 L 570 132 L 571 139 L 567 140 L 567 141 L 572 140 Q 572 146 577 147 L 580 145 L 578 148 L 580 149 L 584 147 L 583 150 L 586 149 L 587 150 L 586 150 L 586 151 L 597 151 L 599 150 L 598 149 L 598 148 L 601 149 L 601 147 L 603 148 L 606 144 Q 609 142 605 141 L 608 142 L 607 140 L 609 140 L 608 138 L 609 136 L 610 138 L 610 130 L 611 129 L 610 124 L 608 124 L 609 121 L 607 121 L 608 119 L 607 119 Q 604 118 606 117 Q 604 112 603 115 L 603 114 L 601 112 L 599 113 L 599 111 L 596 112 L 596 111 L 585 110 Z M 567 133 Q 566 137 569 136 Q 570 132 567 133 Z M 570 142 L 571 144 Q 572 141 570 142 Z " /><path fill="rgb(65,86,121)" stroke="rgb(65,86,121)" stroke-width="1" opacity="0.9294117647058824" d="M 750.5 101 L 762.5 102 L 764 101.5 Q 763.3 103.8 765.5 103 L 767 102.5 L 767.5 104 L 769 103.5 L 768.5 105 L 771.5 103 L 774.5 107 Q 772.2 101.7 770 105.5 L 776 115.5 L 776 124.5 L 775.5 128 L 777 128.5 L 776 131.5 L 777 133.5 L 776 136 Q 772.2 135.3 771 138.5 Q 770.3 140.8 772.5 140 L 774 139.5 L 774 141 L 770 141 L 771 135.5 L 769 134.5 L 767.5 138 L 767 135.5 L 767 128.5 L 769 128 L 770.5 131 L 771 129.5 L 770.5 128 Q 774.3 128.8 775 126.5 L 772.5 126 L 771 126.5 Q 772.1 123.2 769.5 124 L 769.5 122 L 766 120.5 L 764.5 117 L 763 117.5 L 764 115.5 Q 762.1 111.4 756.5 111 L 755 111.5 L 754.5 110 L 747.5 110 L 747.5 112 L 745.5 111 L 744.5 113 L 743 112.5 L 742.5 114 L 740.5 114 L 739 114.5 Q 741.3 115.8 738.5 117 L 736 118.5 L 737 120.5 L 735 120.5 L 736 124.5 L 735 124.5 L 734.5 123 L 733 136.5 Q 735.5 138 734 143.5 L 733 147.5 L 733 149.5 L 733 156 L 725.5 156 L 724 156.5 L 724 104.5 L 723 103.5 L 732 103 L 733.5 110 L 734.5 107 L 735.5 110 L 736.5 107 L 738.5 107 L 742 105.5 L 741.5 104 L 743.5 105 L 743.5 103 Q 745 105.5 746.5 102 L 752.5 103 L 752.5 102 Q 749.5 102.5 750.5 101 Z M 775 117 L 773 119 Q 772 121 775 120 L 775 117 Z " /><path fill="rgb(65,86,121)" stroke="rgb(65,86,121)" stroke-width="1" opacity="0.9294117647058824" d="M 804.5 101 L 805.5 103 L 804.5 101 Z " /><path fill="rgb(65,86,121)" stroke="rgb(65,86,121)" stroke-width="1" opacity="0.9294117647058824" d="M 832.5 101 L 831.5 103 L 832.5 101 Z " /><path fill="rgb(65,86,121)" stroke="rgb(65,86,121)" stroke-width="1" opacity="0.9294117647058824" d="M 393.5 102 L 400.5 103 L 402.5 102 L 404.5 102 L 417.5 102 Q 418.8 104.3 423.5 103 L 428 105.5 L 426.5 106 L 423.5 105 L 421 106.5 L 427 108.5 L 423 110.5 L 426 114.5 L 423 112.5 Q 423.8 109.9 420.5 111 L 417.5 110 L 415.5 111 L 415.5 110 L 417 109.5 L 401.5 109 L 394 111.5 L 394.5 113 L 392.5 112 L 392.5 114 L 390.5 113 L 390.5 115 L 388.5 114 L 387.5 117 Q 384.8 115.8 387 114.5 L 386.5 113 L 385 113.5 Q 384.3 110.9 387 112 L 387 109.5 L 385 106.5 L 387.5 106 L 395 103.5 L 393.5 102 Z M 422 108 L 423 110 Q 424 107 422 108 Z " /><path fill="rgb(65,86,121)" stroke="rgb(65,86,121)" stroke-width="1" opacity="0.9294117647058824" d="M 449.5 102 L 450 104.5 L 449 104.5 L 449.5 102 Z " /><path fill="rgb(65,86,121)" stroke="rgb(65,86,121)" stroke-width="1" opacity="0.9294117647058824" d="M 456.5 102 L 459 102.5 L 456.5 103 L 456.5 102 Z " /><path fill="rgb(65,86,121)" stroke="rgb(65,86,121)" stroke-width="1" opacity="0.9294117647058824" d="M 811 102 Q 827.2 100.3 836 106 L 836.5 108 Q 838.3 105.3 840 109.5 L 845 117.5 L 846 129.5 L 845 129.5 L 845 124 L 842.5 124 L 844 126.5 L 843 127.5 L 842.5 130 L 829.5 130 L 827.5 130 L 824 129.5 L 830 127.5 L 802.5 127 L 801.5 129 L 809.5 128 L 811.5 128 L 815.5 129 L 818.5 128 L 823 129.5 L 819.5 131 L 818.5 130 L 809.5 130 L 805.5 131 L 800.5 129 L 799.5 131 L 799 129.5 L 799.5 128 Q 793.5 129.3 794.5 126 L 789 126 L 789 133 L 795 133 L 795 135 L 789 134 L 788.5 137 L 788 124.5 L 789 120 L 794 120 L 794 118 L 790.5 119 L 791 117.5 Q 792 110 798 107.5 L 797.5 106 L 799.5 107 L 804.5 104 L 809.5 103 L 811 103.5 L 811 102 Z M 814 108 L 812 109 L 813 112 L 809 110 L 810 113 L 808 111 L 803 112 L 802 115 L 804 118 L 802 116 L 798 123 L 800 123 L 800 124 Q 796 123 797 126 L 800 126 L 833 126 L 834 125 L 837 127 L 842 126 L 837 125 L 837 122 L 836 124 L 835 124 L 837 121 L 834 120 L 835 115 L 829 110 Q 824 109 824 112 L 822 112 L 825 110 Q 821 107 814 108 Z " /><path fill="rgb(65,86,121)" stroke="rgb(65,86,121)" stroke-width="1" opacity="0.9294117647058824" d="M 799.5 103 L 800.5 105 L 799.5 103 Z " /><path fill="rgb(65,86,121)" stroke="rgb(65,86,121)" stroke-width="1" opacity="0.9294117647058824" d="M 739.5 104 L 738.5 106 L 739.5 104 Z " /><path fill="rgb(65,86,121)" stroke="rgb(65,86,121)" stroke-width="1" opacity="0.9294117647058824" d="M 838.5 104 L 837.5 106 L 838.5 104 Z " /><path fill="rgb(65,86,121)" stroke="rgb(65,86,121)" stroke-width="1" opacity="0.9294117647058824" d="M 505.5 105 L 505.5 108 L 503 107.5 L 505.5 105 Z " /><path fill="rgb(65,86,121)" stroke="rgb(65,86,121)" stroke-width="1" opacity="0.9294117647058824" d="M 178.5 106 L 175.5 110 L 178.5 106 Z " /><path fill="rgb(65,86,121)" stroke="rgb(65,86,121)" stroke-width="1" opacity="0.9294117647058824" d="M 432.5 106 L 437 108.5 L 435.5 110 L 432.5 106 Z " /><path fill="rgb(65,86,121)" stroke="rgb(65,86,121)" stroke-width="1" opacity="0.9294117647058824" d="M 432.5 109 L 436 113.5 L 434.5 113 Q 431.9 113.8 433 110.5 L 431 110.5 L 432.5 109 Z " /><path fill="rgb(65,86,121)" stroke="rgb(65,86,121)" stroke-width="1" opacity="0.9294117647058824" d="M 104.5 110 L 98.5 117 L 104.5 110 Z " /><path fill="rgb(65,86,121)" stroke="rgb(65,86,121)" stroke-width="1" opacity="0.9294117647058824" d="M 437.5 110 L 436.5 112 L 437.5 110 Z " /><path fill="rgb(65,86,121)" stroke="rgb(65,86,121)" stroke-width="1" opacity="0.9294117647058824" d="M 844.5 110 L 843.5 112 L 844.5 110 Z " /><path fill="rgb(65,86,121)" stroke="rgb(65,86,121)" stroke-width="1" opacity="0.9294117647058824" d="M 405.5 111 L 411 111.5 L 405.5 112 L 405.5 111 Z " /><path fill="rgb(65,86,121)" stroke="rgb(65,86,121)" stroke-width="1" opacity="0.9294117647058824" d="M 474.5 111 L 477 111.5 L 474.5 112 L 474.5 111 Z " /><path fill="rgb(65,86,121)" stroke="rgb(65,86,121)" stroke-width="1" opacity="0.9294117647058824" d="M 814.5 111 L 819 111.5 L 814.5 112 L 814.5 111 Z " /><path fill="rgb(65,86,121)" stroke="rgb(65,86,121)" stroke-width="1" opacity="0.9294117647058824" d="M 826.5 111 L 828 111.5 L 825.5 113 L 826.5 111 Z " /><path fill="rgb(65,86,121)" stroke="rgb(65,86,121)" stroke-width="1" opacity="0.9294117647058824" d="M 172.5 112 L 173 113.5 L 159 126.5 L 172.5 112 Z " /><path fill="rgb(65,86,121)" stroke="rgb(65,86,121)" stroke-width="1" opacity="0.9294117647058824" d="M 429 113 L 433 114.5 L 430.5 115 Q 427.9 115.7 429 113 Z " /><path fill="rgb(65,86,121)" stroke="rgb(65,86,121)" stroke-width="1" opacity="0.9294117647058824" d="M 527.5 113 L 526.5 115 L 527.5 113 Z " /><path fill="rgb(65,86,121)" stroke="rgb(65,86,121)" stroke-width="1" opacity="0.9294117647058824" d="M 754.5 113 L 757 113.5 L 754.5 114 L 754.5 113 Z " /><path fill="rgb(65,86,121)" stroke="rgb(65,86,121)" stroke-width="1" opacity="0.9294117647058824" d="M 846.5 114 L 845.5 116 L 846.5 114 Z " /><path fill="rgb(65,86,121)" stroke="rgb(65,86,121)" stroke-width="1" opacity="0.9294117647058824" d="M 439.5 115 L 439 116.5 L 438.5 118 L 438 116.5 L 439.5 115 Z " /><path fill="rgb(65,86,121)" stroke="rgb(65,86,121)" stroke-width="1" opacity="0.9294117647058824" d="M 832.5 115 L 831.5 117 L 832.5 115 Z " /><path fill="rgb(65,86,121)" stroke="rgb(65,86,121)" stroke-width="1" opacity="0.9294117647058824" d="M 425.5 117 L 424.5 119 L 425.5 117 Z " /><path fill="rgb(65,86,121)" stroke="rgb(65,86,121)" stroke-width="1" opacity="0.9294117647058824" d="M 449.5 117 L 450 120.5 L 449 120.5 L 449.5 117 Z " /><path fill="rgb(65,86,121)" stroke="rgb(65,86,121)" stroke-width="1" opacity="0.9294117647058824" d="M 833.5 117 L 832.5 119 L 833.5 117 Z " /><path fill="rgb(65,86,121)" stroke="rgb(65,86,121)" stroke-width="1" opacity="0.9294117647058824" d="M 430 118 L 435 118 Q 434 121 437 120 L 437 131.5 Q 439.2 132.8 436.5 134 L 435.5 131 Q 434.1 134.1 429 133.5 L 430 136.5 L 428.5 141 L 428 136.5 L 429 134.5 L 428 131 Q 431.7 132.5 431 129.5 L 432 129.5 L 432.5 131 L 436 129 L 435 126.5 L 436 124.5 L 434 124.5 L 435.5 122 L 434 121.5 Q 436.3 120.3 433.5 119 Q 429 118.5 428.5 122 L 427.5 120 L 426.5 123 L 425 120 L 428.5 119 L 430 119.5 L 430 118 Z " /><path fill="rgb(65,86,121)" stroke="rgb(65,86,121)" stroke-width="1" opacity="0.9294117647058824" d="M 95.5 119 L 91.5 124 L 95.5 119 Z " /><path fill="rgb(65,86,121)" stroke="rgb(65,86,121)" stroke-width="1" opacity="0.9294117647058824" d="M 546.5 120 L 547 135.5 L 546 135.5 L 546.5 120 Z " /><path fill="rgb(65,86,121)" stroke="rgb(65,86,121)" stroke-width="1" opacity="0.9294117647058824" d="M 629.5 120 L 630 127.5 L 629 127.5 L 629.5 120 Z " /><path fill="rgb(65,86,121)" stroke="rgb(65,86,121)" stroke-width="1" opacity="0.9294117647058824" d="M 643.5 120 L 644 126.5 L 643 126.5 L 643.5 120 Z " /><path fill="rgb(65,86,121)" stroke="rgb(65,86,121)" stroke-width="1" opacity="0.9294117647058824" d="M 800.5 120 L 802 122.5 L 800 121.5 L 800.5 120 Z " /><path fill="rgb(65,86,121)" stroke="rgb(65,86,121)" stroke-width="1" opacity="0.9294117647058824" d="M 398.5 123 L 401 124.5 L 399.5 124 L 398.5 123 Z " /><path fill="rgb(65,86,121)" stroke="rgb(65,86,121)" stroke-width="1" opacity="0.9294117647058824" d="M 405.5 123 L 415 123.5 L 405.5 124 L 405.5 123 Z " /><path fill="rgb(65,86,121)" stroke="rgb(65,86,121)" stroke-width="1" opacity="0.9294117647058824" d="M 419.5 123 L 425 123.5 L 419.5 124 L 419.5 123 Z " /><path fill="rgb(65,86,121)" stroke="rgb(65,86,121)" stroke-width="1" opacity="0.9294117647058824" d="M 767.5 123 L 768 126.5 L 767 126.5 L 767.5 123 Z " /><path fill="rgb(65,86,121)" stroke="rgb(65,86,121)" stroke-width="1" opacity="0.9294117647058824" d="M 847.5 123 L 848 125.5 L 847 125.5 L 847.5 123 Z " /><path fill="rgb(65,86,121)" stroke="rgb(65,86,121)" stroke-width="1" opacity="0.9294117647058824" d="M 548.5 124 L 549 157.5 L 548 157.5 L 548.5 124 Z " /><path fill="rgb(65,86,121)" stroke="rgb(65,86,121)" stroke-width="1" opacity="0.9294117647058824" d="M 404.5 125 L 425.5 125 L 426 127.5 L 426.5 129 L 422.5 130 L 419 128 L 418.5 131 L 417.5 130 L 411 130 Q 409.9 132.7 412.5 132 L 412.5 133 L 402.5 131 L 397 133.5 L 401 135.5 L 396 136.5 L 397 138.5 L 395 138.5 L 397 142.5 L 395 142.5 Q 394.3 146.3 396.5 147 L 400 146.5 L 399.5 150 L 401.5 149 L 401.5 151 Q 406 150.5 406.5 154 L 407.5 152 L 409.5 152 L 413 152.5 Q 410 153.8 411 158 L 397.5 158 L 394.5 157 L 393 157.5 L 393.5 156 L 391.5 157 L 391.5 155 L 388.5 157 L 389 153.5 L 387.5 152 L 384 152.5 L 386 149.5 L 383 137.5 L 385 137.5 Q 386.4 131.4 391.5 129 L 404.5 125 Z " /><path fill="rgb(65,86,121)" stroke="rgb(65,86,121)" stroke-width="1" opacity="0.9294117647058824" d="M 88.5 126 L 87.5 128 L 88.5 126 Z " /><path fill="rgb(65,86,121)" stroke="rgb(65,86,121)" stroke-width="1" opacity="0.9294117647058824" d="M 204.5 126 L 205 127.5 L 203 128.5 L 204.5 126 Z " /><path fill="rgb(65,86,121)" stroke="rgb(65,86,121)" stroke-width="1" opacity="0.9294117647058824" d="M 449.5 126 L 450 128.5 L 449 128.5 L 449.5 126 Z " /><path fill="rgb(65,86,121)" stroke="rgb(65,86,121)" stroke-width="1" opacity="0.9294117647058824" d="M 464.5 126 L 465 129.5 L 464 129.5 L 464.5 126 Z " /><path fill="rgb(65,86,121)" stroke="rgb(65,86,121)" stroke-width="1" opacity="0.9294117647058824" d="M 764.5 126 L 765 152.5 L 764 152.5 L 764.5 126 Z " /><path fill="rgb(65,86,121)" stroke="rgb(65,86,121)" stroke-width="1" opacity="0.9294117647058824" d="M 571.5 127 L 572 132.5 L 571 132.5 L 571.5 127 Z " /><path fill="rgb(65,86,121)" stroke="rgb(65,86,121)" stroke-width="1" opacity="0.9294117647058824" d="M 158.5 128 L 157.5 130 L 158.5 128 Z " /><path fill="rgb(65,86,121)" stroke="rgb(65,86,121)" stroke-width="1" opacity="0.9294117647058824" d="M 440.5 128 L 441 132.5 L 440 132.5 L 440.5 128 Z " /><path fill="rgb(65,86,121)" stroke="rgb(65,86,121)" stroke-width="1" opacity="0.9294117647058824" d="M 386.5 129 Q 389.5 130.5 386.5 132 L 386.5 129 Z " /><path fill="rgb(65,86,121)" stroke="rgb(65,86,121)" stroke-width="1" opacity="0.9294117647058824" d="M 786.5 129 L 787 134.5 L 786 134.5 L 786.5 129 Z " /><path fill="rgb(65,86,121)" stroke="rgb(65,86,121)" stroke-width="1" opacity="0.9294117647058824" d="M 228.5 130 Q 251.6 133.9 265 147.5 L 266.5 150 L 268 149.5 L 269 151.5 Q 266.8 152.8 269.5 154 Q 271.8 153.3 271 155.5 L 274.5 160 L 276 159.5 L 278 162.5 L 268.5 163 L 267.5 164 L 243.5 164 L 243.5 163 L 256.5 163 L 257 161 Q 253.6 161.8 252.5 159 L 250.5 160 L 248 159.5 L 246 154 L 241 153 L 240.5 151 L 239 151.5 L 240 149.5 L 234.5 147 L 232.5 147 L 228.5 145 L 227.5 147 Q 226 143.5 224.5 146 L 214.5 148 L 193 158.5 L 193.5 160 Q 191.8 157.3 190 161.5 L 190.5 163 L 192.5 163 L 201 163.5 L 185 164 L 184 161.5 L 206 148.5 Q 205.3 146.3 207.5 147 L 215 140.5 Q 214.3 137.9 217 139 L 217 137 L 219.5 137 L 220.5 134 L 228.5 130 Z " /><path fill="rgb(65,86,121)" stroke="rgb(65,86,121)" stroke-width="1" opacity="0.9294117647058824" d="M 426.5 130 L 427 133.5 L 425.5 138 L 425 132.5 L 426.5 130 Z " /><path fill="rgb(65,86,121)" stroke="rgb(65,86,121)" stroke-width="1" opacity="0.9294117647058824" d="M 84.5 131 L 62.5 154 L 84.5 131 Z " /><path fill="rgb(65,86,121)" stroke="rgb(65,86,121)" stroke-width="1" opacity="0.9294117647058824" d="M 449.5 131 L 450 133.5 L 449 133.5 L 449.5 131 Z " /><path fill="rgb(65,86,121)" stroke="rgb(65,86,121)" stroke-width="1" opacity="0.9294117647058824" d="M 154.5 132 L 152.5 135 L 154.5 132 Z " /><path fill="rgb(65,86,121)" stroke="rgb(65,86,121)" stroke-width="1" opacity="0.9294117647058824" d="M 383.5 133 L 384.5 135 L 383.5 133 Z " /><path fill="rgb(65,86,121)" stroke="rgb(65,86,121)" stroke-width="1" opacity="0.9294117647058824" d="M 722.5 133 L 723 135.5 L 722 135.5 L 722.5 133 Z " /><path fill="rgb(65,86,121)" stroke="rgb(65,86,121)" stroke-width="1" opacity="0.9294117647058824" d="M 801.5 133 L 835 133.5 L 801.5 134 L 801.5 133 Z " /><path fill="rgb(65,86,121)" stroke="rgb(65,86,121)" stroke-width="1" opacity="0.9294117647058824" d="M 836.5 133 L 849 133.5 L 836.5 134 L 836.5 133 Z " /><path fill="rgb(65,86,121)" stroke="rgb(65,86,121)" stroke-width="1" opacity="0.9294117647058824" d="M 431.5 134 L 435 135.5 L 431 136 L 431.5 134 Z " /><path fill="rgb(65,86,121)" stroke="rgb(65,86,121)" stroke-width="1" opacity="0.9294117647058824" d="M 150.5 136 L 151 137.5 L 144 143.5 L 146 140 Q 148.7 141.1 148 138.5 L 150.5 136 Z " /><path fill="rgb(65,86,121)" stroke="rgb(65,86,121)" stroke-width="1" opacity="0.9294117647058824" d="M 436.5 136 Q 438.8 135.3 438 137.5 L 436.5 136 Z " /><path fill="rgb(65,86,121)" stroke="rgb(65,86,121)" stroke-width="1" opacity="0.9294117647058824" d="M 440.5 136 L 441 140.5 L 440 140.5 L 440.5 136 Z " /><path fill="rgb(65,86,121)" stroke="rgb(65,86,121)" stroke-width="1" opacity="0.9294117647058824" d="M 464.5 136 L 465 138.5 L 464 138.5 L 464.5 136 Z " /><path fill="rgb(65,86,121)" stroke="rgb(65,86,121)" stroke-width="1" opacity="0.9294117647058824" d="M 736.5 136 L 737 146.5 L 736 146.5 L 736.5 136 Z " /><path fill="rgb(65,86,121)" stroke="rgb(65,86,121)" stroke-width="1" opacity="0.9294117647058824" d="M 797.5 136 Q 800.1 135.2 799 138.5 L 799.5 140 L 797.5 136 Z " /><path fill="rgb(65,86,121)" stroke="rgb(65,86,121)" stroke-width="1" opacity="0.9294117647058824" d="M 189 137 L 191 137.5 L 189 138.5 L 189 137 Z " /><path fill="rgb(65,86,121)" stroke="rgb(65,86,121)" stroke-width="1" opacity="0.9294117647058824" d="M 546.5 137 L 547 155.5 L 546 155.5 L 546.5 137 Z " /><path fill="rgb(65,86,121)" stroke="rgb(65,86,121)" stroke-width="1" opacity="0.9294117647058824" d="M 432.5 138 L 435 138.5 L 432.5 139 L 432.5 138 Z " /><path fill="rgb(65,86,121)" stroke="rgb(65,86,121)" stroke-width="1" opacity="0.9294117647058824" d="M 493.5 138 L 494 141.5 L 492 140.5 L 493.5 138 Z " /><path fill="rgb(65,86,121)" stroke="rgb(65,86,121)" stroke-width="1" opacity="0.9294117647058824" d="M 381.5 139 L 382 144.5 L 381 144.5 L 381.5 139 Z " /><path fill="rgb(65,86,121)" stroke="rgb(65,86,121)" stroke-width="1" opacity="0.9294117647058824" d="M 437.5 139 L 438 141.5 L 437 141.5 L 437.5 139 Z " /><path fill="rgb(65,86,121)" stroke="rgb(65,86,121)" stroke-width="1" opacity="0.9294117647058824" d="M 767 139 Q 769.7 137.9 769 140.5 L 768 142.5 L 768 144.5 L 769 148.5 L 767 149.5 L 767 139 Z " /><path fill="rgb(65,86,121)" stroke="rgb(65,86,121)" stroke-width="1" opacity="0.9294117647058824" d="M 775.5 139 L 777 141.5 L 776 141.5 L 775.5 139 Z " /><path fill="rgb(65,86,121)" stroke="rgb(65,86,121)" stroke-width="1" opacity="0.9294117647058824" d="M 533.5 140 L 534 142.5 L 533 142.5 L 533.5 140 Z " /><path fill="rgb(65,86,121)" stroke="rgb(65,86,121)" stroke-width="1" opacity="0.9294117647058824" d="M 787.5 140 L 786.5 142 L 787.5 140 Z " /><path fill="rgb(65,86,121)" stroke="rgb(65,86,121)" stroke-width="1" opacity="0.9294117647058824" d="M 801.5 140 L 801 141.5 L 800.5 143 L 800 141.5 L 801.5 140 Z " /><path fill="rgb(65,86,121)" stroke="rgb(65,86,121)" stroke-width="1" opacity="0.9294117647058824" d="M 575.5 141 L 574.5 143 L 575.5 141 Z " /><path fill="rgb(65,86,121)" stroke="rgb(65,86,121)" stroke-width="1" opacity="0.9294117647058824" d="M 722.5 141 L 723 157.5 L 722 157.5 L 722.5 141 Z " /><path fill="rgb(65,86,121)" stroke="rgb(65,86,121)" stroke-width="1" opacity="0.9294117647058824" d="M 843.5 141 L 842.5 143 L 843.5 141 Z " /><path fill="rgb(65,86,121)" stroke="rgb(65,86,121)" stroke-width="1" opacity="0.9294117647058824" d="M 449.5 142 L 450 144.5 L 449 144.5 L 449.5 142 Z " /><path fill="rgb(65,86,121)" stroke="rgb(65,86,121)" stroke-width="1" opacity="0.9294117647058824" d="M 770.5 142 L 774 147.5 L 771 145.5 L 770.5 142 Z " /><path fill="rgb(65,86,121)" stroke="rgb(65,86,121)" stroke-width="1" opacity="0.9294117647058824" d="M 790.5 142 L 792 144.5 L 789 144.5 L 790.5 142 Z " /><path fill="rgb(65,86,121)" stroke="rgb(65,86,121)" stroke-width="1" opacity="0.9294117647058824" d="M 804.5 142 L 803.5 144 L 804.5 142 Z " /><path fill="rgb(65,86,121)" stroke="rgb(65,86,121)" stroke-width="1" opacity="0.9294117647058824" d="M 424.5 144 L 422.5 147 L 421.5 145 Q 423 147.5 424.5 144 Z " /><path fill="rgb(65,86,121)" stroke="rgb(65,86,121)" stroke-width="1" opacity="0.9294117647058824" d="M 428.5 144 L 430.5 145 L 433.5 144 Q 436.5 143.2 435 147 L 433 147.5 L 434 150 L 431 151.5 L 433 152 L 432.5 154 L 430 152.5 L 431 155.5 L 429 156.5 Q 428 151.5 431 150.5 L 428.5 150 L 426.5 153 L 428 153 L 428 157 L 425.5 158 L 426 156.5 L 424.5 154 L 422.5 154 L 421 154.5 L 422.5 157 L 419 154.5 L 421 153.5 L 419 153 L 418.5 151 L 414 153 Q 412.7 149.7 417.5 151 L 422.5 148 L 420 151.5 L 421.5 153 L 426.5 149 Q 431.6 149.6 433 146.5 L 431.5 146 L 430 146.5 Q 430.8 144.3 428.5 145 L 428.5 144 Z " /><path fill="rgb(65,86,121)" stroke="rgb(65,86,121)" stroke-width="1" opacity="0.9294117647058824" d="M 464.5 144 L 465 146.5 L 464 146.5 L 464.5 144 Z " /><path fill="rgb(65,86,121)" stroke="rgb(65,86,121)" stroke-width="1" opacity="0.9294117647058824" d="M 839.5 144 L 842 144.5 Q 839.9 147.8 839.5 144 Z " /><path fill="rgb(65,86,121)" stroke="rgb(65,86,121)" stroke-width="1" opacity="0.9294117647058824" d="M 807.5 145 L 806.5 147 L 807.5 145 Z " /><path fill="rgb(65,86,121)" stroke="rgb(65,86,121)" stroke-width="1" opacity="0.9294117647058824" d="M 452.5 146 L 454 156.5 L 452 155.5 L 453 152.5 Q 450.4 150.9 452.5 146 Z " /><path fill="rgb(65,86,121)" stroke="rgb(65,86,121)" stroke-width="1" opacity="0.9294117647058824" d="M 790.5 146 L 789.5 148 L 790.5 146 Z " /><path fill="rgb(65,86,121)" stroke="rgb(65,86,121)" stroke-width="1" opacity="0.9294117647058824" d="M 803.5 146 L 804.5 148 Q 801.7 148.7 803.5 146 Z " /><path fill="rgb(65,86,121)" stroke="rgb(65,86,121)" stroke-width="1" opacity="0.9294117647058824" d="M 809.5 146 L 808.5 148 L 809.5 146 Z " /><path fill="rgb(65,86,121)" stroke="rgb(65,86,121)" stroke-width="1" opacity="0.9294117647058824" d="M 140.5 147 L 141 148.5 L 131 157.5 L 136.5 151 L 139 149.5 L 140.5 147 Z " /><path fill="rgb(65,86,121)" stroke="rgb(65,86,121)" stroke-width="1" opacity="0.9294117647058824" d="M 811.5 147 L 810.5 149 L 811.5 147 Z " /><path fill="rgb(65,86,121)" stroke="rgb(65,86,121)" stroke-width="1" opacity="0.9294117647058824" d="M 414.5 148 L 417 149.5 L 415.5 149 L 414.5 148 Z " /><path fill="rgb(65,86,121)" stroke="rgb(65,86,121)" stroke-width="1" opacity="0.9294117647058824" d="M 533.5 148 L 534 150.5 L 533 150.5 L 533.5 148 Z " /><path fill="rgb(65,86,121)" stroke="rgb(65,86,121)" stroke-width="1" opacity="0.9294117647058824" d="M 806.5 148 L 810 150.5 L 809.5 152 L 809 150 L 806.5 149 L 803.5 151 L 804.5 149 L 806.5 148 Z " /><path fill="rgb(65,86,121)" stroke="rgb(65,86,121)" stroke-width="1" opacity="0.9294117647058824" d="M 814.5 148 L 817 148.5 L 812.5 150 L 812.5 149 L 814.5 148 Z " /><path fill="rgb(65,86,121)" stroke="rgb(65,86,121)" stroke-width="1" opacity="0.9294117647058824" d="M 774.5 149 L 777 149.5 L 776 152 L 771.5 151 L 771 152.5 L 771.5 154 L 767 151.5 L 771.5 150 Q 773 152.5 774.5 149 Z " /><path fill="rgb(65,86,121)" stroke="rgb(65,86,121)" stroke-width="1" opacity="0.9294117647058824" d="M 792.5 149 L 794.5 149 L 799 151.5 L 797.5 152 L 795.5 151 L 797 153.5 L 795.5 155 Q 797.2 153 793.5 151 Q 792.3 153.3 791 150.5 L 792.5 149 Z " /><path fill="rgb(65,86,121)" stroke="rgb(65,86,121)" stroke-width="1" opacity="0.9294117647058824" d="M 846.5 149 L 849 149.5 L 848 152 L 846 151.5 L 846.5 149 Z " /><path fill="rgb(65,86,121)" stroke="rgb(65,86,121)" stroke-width="1" opacity="0.9294117647058824" d="M 169.5 150 L 168.5 152 L 169.5 150 Z " /><path fill="rgb(65,86,121)" stroke="rgb(65,86,121)" stroke-width="1" opacity="0.9294117647058824" d="M 410.5 150 L 413 150.5 L 410.5 151 L 410.5 150 Z " /><path fill="rgb(65,86,121)" stroke="rgb(65,86,121)" stroke-width="1" opacity="0.9294117647058824" d="M 457.5 150 L 456.5 152 L 457.5 150 Z " /><path fill="rgb(65,86,121)" stroke="rgb(65,86,121)" stroke-width="1" opacity="0.9294117647058824" d="M 818.5 150 L 824 150.5 L 818.5 151 L 818.5 150 Z " /><path fill="rgb(65,86,121)" stroke="rgb(65,86,121)" stroke-width="1" opacity="0.9294117647058824" d="M 811.5 151 L 815 151.5 L 811.5 152 L 811.5 151 Z " /><path fill="rgb(65,86,121)" stroke="rgb(65,86,121)" stroke-width="1" opacity="0.9294117647058824" d="M 827 151 Q 830.8 150 832 152.5 Q 830.8 155 827 154 L 827 151 Z " /><path fill="rgb(65,86,121)" stroke="rgb(65,86,121)" stroke-width="1" opacity="0.9294117647058824" d="M 493.5 152 L 494 155.5 L 493 155.5 L 493.5 152 Z " /><path fill="rgb(65,86,121)" stroke="rgb(65,86,121)" stroke-width="1" opacity="0.9294117647058824" d="M 779.5 152 L 780 156.5 L 779 156.5 L 779.5 152 Z " /><path fill="rgb(65,86,121)" stroke="rgb(65,86,121)" stroke-width="1" opacity="0.9294117647058824" d="M 817.5 153 L 818.5 155 L 816 154.5 L 817.5 153 Z " /><path fill="rgb(65,86,121)" stroke="rgb(65,86,121)" stroke-width="1" opacity="0.9294117647058824" d="M 844.5 153 L 845.5 155 L 844.5 153 Z " /><path fill="rgb(65,86,121)" stroke="rgb(65,86,121)" stroke-width="1" opacity="0.9294117647058824" d="M 801.5 154 L 808 156.5 L 806.5 157 L 801.5 155 L 801.5 154 Z " /><path fill="rgb(65,86,121)" stroke="rgb(65,86,121)" stroke-width="1" opacity="0.9294117647058824" d="M 833.5 154 L 833 155.5 L 833 157 L 829 157 L 829.5 155 L 831.5 155 L 833.5 154 Z " /><path fill="rgb(65,86,121)" stroke="rgb(65,86,121)" stroke-width="1" opacity="0.9294117647058824" d="M 413.5 155 L 414.5 157 Q 411.7 157.7 413.5 155 Z " /><path fill="rgb(65,86,121)" stroke="rgb(65,86,121)" stroke-width="1" opacity="0.9294117647058824" d="M 432.5 155 L 435 155.5 L 432.5 156 L 432.5 155 Z " /><path fill="rgb(65,86,121)" stroke="rgb(65,86,121)" stroke-width="1" opacity="0.9294117647058824" d="M 767.5 155 L 771 155.5 L 767.5 156 L 767.5 155 Z " /><path fill="rgb(65,86,121)" stroke="rgb(65,86,121)" stroke-width="1" opacity="0.9294117647058824" d="M 160.5 156 L 159 158.5 L 158.5 160 L 158 158.5 L 160.5 156 Z " /><path fill="rgb(65,86,121)" stroke="rgb(65,86,121)" stroke-width="1" opacity="0.9294117647058824" d="M 691.5 156 L 692.5 158 L 691.5 156 Z " /><path fill="rgb(65,86,121)" stroke="rgb(65,86,121)" stroke-width="1" opacity="0.9294117647058824" d="M 764.5 156 L 765 158.5 L 764 158.5 L 764.5 156 Z " /><path fill="rgb(65,86,121)" stroke="rgb(65,86,121)" stroke-width="1" opacity="0.9294117647058824" d="M 813.5 156 L 828 157.5 L 812.5 158 L 813.5 156 Z " /><path fill="rgb(65,86,121)" stroke="rgb(65,86,121)" stroke-width="1" opacity="0.9294117647058824" d="M 838.5 156 L 839.5 158 L 838.5 156 Z " /><path fill="rgb(65,86,121)" stroke="rgb(65,86,121)" stroke-width="1" opacity="0.9294117647058824" d="M 560.5 157 L 561 159.5 L 560 159.5 L 560.5 157 Z " /><path fill="rgb(65,86,121)" stroke="rgb(65,86,121)" stroke-width="1" opacity="0.9294117647058824" d="M 464.5 158 L 465.5 160 L 463 159.5 L 464.5 158 Z " /><path fill="rgb(65,86,121)" stroke="rgb(65,86,121)" stroke-width="1" opacity="0.9294117647058824" d="M 807.5 158 L 806.5 160 L 807.5 158 Z " /><path fill="rgb(65,86,121)" stroke="rgb(65,86,121)" stroke-width="1" opacity="0.9294117647058824" d="M 832.5 158 L 835 159.5 L 833.5 160 L 832.5 158 Z " /><path fill="rgb(65,86,121)" stroke="rgb(65,86,121)" stroke-width="1" opacity="0.9294117647058824" d="M 399.5 159 L 410.5 159 L 413 160.5 L 410.5 161 L 409.5 160 L 399.5 160 L 398 160.5 L 399.5 159 Z " /><path fill="rgb(65,86,121)" stroke="rgb(65,86,121)" stroke-width="1" opacity="0.9294117647058824" d="M 435.5 159 L 438 159.5 L 435.5 160 L 435.5 159 Z " /><path fill="rgb(65,86,121)" stroke="rgb(65,86,121)" stroke-width="1" opacity="0.9294117647058824" d="M 459.5 159 L 462 159.5 L 459.5 160 L 459.5 159 Z " /><path fill="rgb(65,86,121)" stroke="rgb(65,86,121)" stroke-width="1" opacity="0.9294117647058824" d="M 499.5 159 L 506 159.5 L 499.5 160 L 499.5 159 Z " /><path fill="rgb(65,86,121)" stroke="rgb(65,86,121)" stroke-width="1" opacity="0.9294117647058824" d="M 589.5 159 L 596 159.5 L 589.5 160 L 589.5 159 Z " /><path fill="rgb(65,86,121)" stroke="rgb(65,86,121)" stroke-width="1" opacity="0.9294117647058824" d="M 665.5 159 L 679 159.5 L 665.5 160 L 665.5 159 Z " /><path fill="rgb(65,86,121)" stroke="rgb(65,86,121)" stroke-width="1" opacity="0.9294117647058824" d="M 726.5 159 L 731 159.5 L 726.5 160 L 726.5 159 Z " /><path fill="rgb(65,86,121)" stroke="rgb(65,86,121)" stroke-width="1" opacity="0.9294117647058824" d="M 816.5 159 L 822 159.5 L 816.5 160 L 816.5 159 Z " /><path fill="rgb(65,86,121)" stroke="rgb(65,86,121)" stroke-width="1" opacity="0.9294117647058824" d="M 823.5 159 L 827 159.5 L 823.5 160 L 823.5 159 Z " /><path fill="rgb(65,86,121)" stroke="rgb(65,86,121)" stroke-width="1" opacity="0.9294117647058824" d="M 55.5 160 L 56 161.5 L 54 162.5 L 55.5 160 Z " /><path fill="rgb(65,86,121)" stroke="rgb(65,86,121)" stroke-width="1" opacity="0.9294117647058824" d="M 128.5 160 L 129 162 L 123.5 165 L 123 163 L 128.5 160 Z " /><path fill="rgb(65,86,121)" stroke="rgb(65,86,121)" stroke-width="1" opacity="0.9294117647058824" d="M 156.5 160 L 155.5 162 L 153 163.5 L 152.5 165 L 152 162 L 156.5 160 Z " /><path fill="rgb(65,86,121)" stroke="rgb(65,86,121)" stroke-width="1" opacity="0.9294117647058824" d="M 239.5 163 L 242 163.5 L 239.5 164 L 239.5 163 Z " /><path fill="rgb(65,86,121)" stroke="rgb(65,86,121)" stroke-width="1" opacity="0.9294117647058824" d="M 53.5 164 L 69 164.5 L 53.5 165 L 53.5 164 Z " /><path fill="rgb(65,86,121)" stroke="rgb(65,86,121)" stroke-width="1" opacity="0.9294117647058824" d="M 572.5 168 L 573 172.5 L 572 172.5 L 572.5 168 Z " /><path fill="rgb(65,86,121)" stroke="rgb(65,86,121)" stroke-width="1" opacity="0.9294117647058824" d="M 559 172 L 561 172.5 L 559 173.5 L 559 172 Z " /><path fill="rgb(76,115,153)" stroke="rgb(76,115,153)" stroke-width="1" opacity="0.9686274509803922" d="M 203.5 63 L 209 63.5 L 203.5 64 L 203.5 63 Z " /><path fill="rgb(76,115,153)" stroke="rgb(76,115,153)" stroke-width="1" opacity="0.9686274509803922" d="M 339.5 84 L 347 84.5 L 339.5 85 L 339.5 84 Z " /><path fill="rgb(76,115,153)" stroke="rgb(76,115,153)" stroke-width="1" opacity="0.9686274509803922" d="M 668.5 84 L 677 84.5 L 668.5 85 L 668.5 84 Z " /><path fill="rgb(76,115,153)" stroke="rgb(76,115,153)" stroke-width="1" opacity="0.9686274509803922" d="M 334.5 85 L 338 85.5 L 334.5 86 L 334.5 85 Z " /><path fill="rgb(76,115,153)" stroke="rgb(76,115,153)" stroke-width="1" opacity="0.9686274509803922" d="M 661.5 85 L 665 85.5 L 661.5 86 L 661.5 85 Z " /><path fill="rgb(76,115,153)" stroke="rgb(76,115,153)" stroke-width="1" opacity="0.9686274509803922" d="M 680.5 85 L 683 85.5 L 680.5 86 L 680.5 85 Z " /><path fill="rgb(76,115,153)" stroke="rgb(76,115,153)" stroke-width="1" opacity="0.9686274509803922" d="M 196.5 86 L 195.5 88 L 196.5 86 Z " /><path fill="rgb(76,115,153)" stroke="rgb(76,115,153)" stroke-width="1" opacity="0.9686274509803922" d="M 328.5 87 L 330 87.5 L 327.5 89 L 328.5 87 Z " /><path fill="rgb(76,115,153)" stroke="rgb(76,115,153)" stroke-width="1" opacity="0.9686274509803922" d="M 694.5 89 L 697 90.5 L 695.5 90 L 694.5 89 Z " /><path fill="rgb(76,115,153)" stroke="rgb(76,115,153)" stroke-width="1" opacity="0.9686274509803922" d="M 322.5 90 L 320.5 93 L 318.5 94 L 319.5 92 L 322.5 90 Z " /><path fill="rgb(76,115,153)" stroke="rgb(76,115,153)" stroke-width="1" opacity="0.9686274509803922" d="M 646.5 91 L 645.5 93 L 646.5 91 Z " /><path fill="rgb(76,115,153)" stroke="rgb(76,115,153)" stroke-width="1" opacity="0.9686274509803922" d="M 698.5 91 L 699.5 93 L 698.5 91 Z " /><path fill="rgb(76,115,153)" stroke="rgb(76,115,153)" stroke-width="1" opacity="0.9686274509803922" d="M 218.5 93 L 224 93.5 L 218.5 94 L 218.5 93 Z " /><path fill="rgb(76,115,153)" stroke="rgb(76,115,153)" stroke-width="1" opacity="0.9686274509803922" d="M 225.5 93 L 230 93.5 L 225.5 94 L 225.5 93 Z " /><path fill="rgb(76,115,153)" stroke="rgb(76,115,153)" stroke-width="1" opacity="0.9686274509803922" d="M 231.5 93 L 238 93.5 L 231.5 94 L 231.5 93 Z " /><path fill="rgb(76,115,153)" stroke="rgb(76,115,153)" stroke-width="1" opacity="0.9686274509803922" d="M 341.5 93 L 344 93.5 L 341.5 94 L 341.5 93 Z " /><path fill="rgb(76,115,153)" stroke="rgb(76,115,153)" stroke-width="1" opacity="0.9686274509803922" d="M 643.5 93 L 641.5 96 L 643.5 93 Z " /><path fill="rgb(76,115,153)" stroke="rgb(76,115,153)" stroke-width="1" opacity="0.9686274509803922" d="M 701.5 93 Q 709.3 99.2 713 109.5 L 714 114.5 L 714 129.5 Q 711.7 143.2 702.5 150 L 684.5 159 L 660.5 159 L 650.5 156 L 638 148 L 636 144.5 L 643.5 151 L 650.5 155 L 661.5 158 L 683.5 158 L 699.5 151 L 707 143.5 L 712 133.5 L 713 114.5 Q 709.4 100.5 701.5 93 Z " /><path fill="rgb(76,115,153)" stroke="rgb(76,115,153)" stroke-width="1" opacity="0.9686274509803922" d="M 212.5 94 L 214.5 95 L 245.5 95 L 247 94.5 L 246.5 96 L 249.5 95 Q 251.2 98.1 253 96.5 L 251 99.5 L 256.5 107 L 258 106.5 L 257 108.5 L 260.5 113 L 262 112.5 L 262 114.5 L 263.5 117 L 265 116.5 L 264 118.5 L 267 119.5 L 266 121.5 L 269 122.5 L 268 124.5 L 271 125.5 L 270 127.5 L 273 128.5 L 272 130.5 L 276 132.5 L 274 132.5 L 278.5 139 L 280 138.5 L 279 140.5 L 282.5 145 L 284 144.5 L 283 146.5 L 295 164 L 268 163.5 L 278 162.5 L 275.5 159 Q 273.7 161.7 272 157.5 L 271 154 L 268 152.5 L 268 150.5 L 267.5 149 Q 266.3 151.3 265 148.5 L 261.5 144 L 241.5 133 L 232.5 130 L 228.5 130 L 219 135.5 L 219.5 137 L 217 137 L 217 139 Q 214.3 137.9 215 140.5 L 206 147 L 204.5 150 L 200.5 151 Q 194.1 158.1 184 161.5 L 185 164 L 155.5 164 L 154.5 163 L 153 163.5 L 157 160.5 L 156.5 159 L 158.5 160 L 173 149.5 L 172.5 148 L 174.5 149 L 175.5 146 L 177.5 147 L 178.5 144 L 180.5 145 L 181.5 142 L 183.5 143 L 184.5 140 L 186.5 141 L 187.5 138 L 189.5 139 L 190.5 136 L 192.5 137 Q 196.2 135 194.5 133 L 196.5 134 L 197.5 131 L 199.5 132 L 207 125.5 L 207.5 124 L 209 124.5 Q 209.8 122.3 207.5 123 L 205 120.5 L 205 118.5 L 203 113.5 L 203 105.5 L 205 101.5 L 204.5 100 L 205.5 101 L 209 97.5 L 208.5 96 L 210.5 97 L 214 95.5 L 212.5 94 Z " /><path fill="rgb(76,115,153)" stroke="rgb(76,115,153)" stroke-width="1" opacity="0.9686274509803922" d="M 357.5 94 L 360 94.5 L 357.5 95 L 357.5 94 Z " /><path fill="rgb(76,115,153)" stroke="rgb(76,115,153)" stroke-width="1" opacity="0.9686274509803922" d="M 664.5 94 L 667 94.5 L 664.5 95 L 664.5 94 Z " /><path fill="rgb(76,115,153)" stroke="rgb(76,115,153)" stroke-width="1" opacity="0.9686274509803922" d="M 676.5 94 L 680 94.5 L 676.5 95 L 676.5 94 Z " /><path fill="rgb(76,115,153)" stroke="rgb(76,115,153)" stroke-width="1" opacity="0.9686274509803922" d="M 366.5 96 L 371 98.5 L 369.5 99 L 366.5 96 Z " /><path fill="rgb(76,115,153)" stroke="rgb(76,115,153)" stroke-width="1" opacity="0.9686274509803922" d="M 314.5 97 L 313.5 99 L 314.5 97 Z " /><path fill="rgb(76,115,153)" stroke="rgb(76,115,153)" stroke-width="1" opacity="0.9686274509803922" d="M 639.5 97 L 637 100.5 L 635.5 103 L 636 101.5 L 639.5 97 Z " /><path fill="rgb(76,115,153)" stroke="rgb(76,115,153)" stroke-width="1" opacity="0.9686274509803922" d="M 185.5 98 L 181.5 103 L 185.5 98 Z " /><path fill="rgb(76,115,153)" stroke="rgb(76,115,153)" stroke-width="1" opacity="0.9686274509803922" d="M 329.5 98 L 326.5 102 L 329.5 98 Z " /><path fill="rgb(76,115,153)" stroke="rgb(76,115,153)" stroke-width="1" opacity="0.9686274509803922" d="M 690.5 99 Q 697.5 103.5 700 112.5 L 699 112.5 Q 696.2 103.4 690.5 99 Z " /><path fill="rgb(76,115,153)" stroke="rgb(76,115,153)" stroke-width="1" opacity="0.9686274509803922" d="M 312.5 100 L 311 102.5 L 308.5 108 L 308 106.5 L 312.5 100 Z " /><path fill="rgb(76,115,153)" stroke="rgb(76,115,153)" stroke-width="1" opacity="0.9686274509803922" d="M 652.5 100 L 648 105.5 L 645.5 110 L 646 108.5 Q 647.4 102.4 652.5 100 Z " /><path fill="rgb(76,115,153)" stroke="rgb(76,115,153)" stroke-width="1" opacity="0.9686274509803922" d="M 400.5 101 L 420.5 101 L 424.5 102 Q 431.9 104.6 436 110.5 L 439 118.5 L 439 120.5 L 439 157.5 L 438.5 158 L 427.5 158 L 428 156.5 Q 429.5 152.1 426.5 153 L 425.5 152 L 422.5 155 Q 413.8 161.3 396.5 159 L 387 154 L 384 149.5 L 383 138.5 Q 384.8 131.3 390.5 128 L 401.5 124 Q 411.8 125.3 418.5 123 Q 419.8 125.3 424.5 124 L 427 123 Q 427 114.9 420.5 112 L 416.5 110 L 402.5 110 L 394.5 112 L 387.5 116 L 386 113.5 L 387 113.5 L 387.5 115 L 401.5 109 L 416.5 109 L 422.5 111 L 420.5 108 L 419 108.5 L 423 105.5 L 422.5 104 L 425.5 105 L 425.5 104 L 417.5 102 L 404.5 102 L 402.5 102 L 396.5 103 L 396.5 102 L 400.5 101 Z M 423 108 L 423 110 L 427 109 L 423 108 Z M 434 110 Q 431 114 435 113 L 434 110 Z M 429 113 L 429 115 L 432 114 L 429 113 Z M 430 118 L 431 120 L 434 119 L 435 120 L 435 118 L 430 118 Z M 428 119 L 428 122 L 430 121 L 428 119 Z M 436 120 L 434 122 L 436 122 L 436 125 L 435 127 L 436 129 L 433 131 L 432 130 L 431 130 Q 432 132 428 131 L 429 134 L 434 133 L 436 131 L 437 134 Q 439 133 437 132 L 437 121 L 436 120 Z M 405 125 L 392 129 L 384 139 L 384 145 L 386 151 Q 393 161 411 158 Q 410 154 413 153 L 410 152 L 408 152 L 407 154 L 395 146 L 396 142 L 397 147 L 400 149 L 406 151 L 413 151 L 423 147 Q 429 143 427 131 L 426 131 L 419 131 L 419 128 L 423 130 L 427 129 L 426 128 L 426 125 L 405 125 Z M 430 134 L 428 137 L 429 141 L 430 137 L 430 134 Z M 432 134 L 431 136 L 435 136 L 432 134 Z M 437 136 L 438 138 Q 439 135 437 136 Z M 433 138 L 433 139 L 435 139 L 433 138 Z M 438 139 L 437 142 L 438 142 L 438 139 Z M 432 144 L 430 146 L 431 147 L 433 146 L 432 144 Z M 434 144 L 433 147 L 435 147 Q 436 143 434 144 Z M 431 148 L 427 149 Q 424 151 427 152 L 431 150 L 433 150 Q 435 151 434 149 L 433 149 L 431 148 Z M 421 149 L 419 150 L 419 152 Q 418 154 421 153 Q 419 151 422 150 L 421 149 Z M 414 151 L 414 153 L 418 152 L 414 151 Z M 430 152 L 429 157 L 431 156 L 430 152 Z M 432 152 L 433 154 Q 434 151 432 152 Z M 414 155 Q 412 158 415 157 L 414 155 Z M 433 155 L 433 156 L 435 156 L 433 155 Z " /><path fill="rgb(76,115,153)" stroke="rgb(76,115,153)" stroke-width="1" opacity="0.9686274509803922" d="M 478.5 101 Q 495.3 99.3 501 108.5 L 500.5 110 L 497.5 106 L 492.5 103 L 490.5 103 L 478.5 102 Q 470 104 465.5 110 L 467 107.5 L 468.5 105 L 478.5 101 Z " /><path fill="rgb(76,115,153)" stroke="rgb(76,115,153)" stroke-width="1" opacity="0.9686274509803922" d="M 519.5 101 Q 538 99 544 109.5 L 546 114.5 L 546 135.5 L 547 136.5 L 546 137.5 L 546 155.5 L 547 158 L 535.5 158 L 535 157.5 L 535 122.5 L 530.5 115 Q 526.2 109.8 515.5 111 L 506 117.5 L 503 127.5 L 503 158 L 491.5 158 L 491 157.5 L 491 120.5 L 492 120.5 Q 488.8 130.3 498.5 127 L 501 128 L 500 130.5 L 501 135.5 L 501 139.5 Q 502.5 145 500 146.5 L 501 149.5 L 501.5 152 L 502 126.5 L 501 122.5 L 502 122.5 L 502.5 125 L 504 118.5 L 509.5 113 L 515.5 110 L 522.5 110 L 532 114 Q 536.3 118.5 537 127.5 L 536 128.5 L 536 155.5 L 537 155.5 L 537.5 151 L 539 153.5 L 538 156 L 545 157 L 545 115.5 L 541.5 109 Q 540.3 111.2 539 108.5 L 540 106.5 L 533.5 103 L 520.5 102 L 509.5 106 L 504 110.5 L 503.5 112 Q 500 110 504.5 108 L 519.5 101 Z M 493 128 L 493 130 L 492 132 L 494 135 L 494 134 L 497 133 L 499 134 L 499 128 L 495 128 L 495 130 L 494 130 Q 495 127 493 128 Z M 494 138 L 492 141 L 494 142 L 494 138 Z M 494 152 L 493 156 L 494 156 L 494 152 Z " /><path fill="rgb(76,115,153)" stroke="rgb(76,115,153)" stroke-width="1" opacity="0.9686274509803922" d="M 589.5 101 L 595 101.5 L 589.5 102 L 589.5 101 Z " /><path fill="rgb(76,115,153)" stroke="rgb(76,115,153)" stroke-width="1" opacity="0.9686274509803922" d="M 596.5 101 L 600.5 101 L 607 103.5 L 605.5 104 Q 602.6 101.4 596.5 102 L 596.5 101 Z " /><path fill="rgb(76,115,153)" stroke="rgb(76,115,153)" stroke-width="1" opacity="0.9686274509803922" d="M 754.5 101 L 763 101.5 L 754.5 102 L 754.5 101 Z " /><path fill="rgb(76,115,153)" stroke="rgb(76,115,153)" stroke-width="1" opacity="0.9686274509803922" d="M 810.5 101 Q 834.3 98.3 843 110.5 L 846 116.5 L 848 129.5 L 847 132 L 800.5 132 L 799 133.5 L 801 140.5 L 806.5 147 L 812.5 150 L 823.5 151 L 833.5 149 L 844 144 L 847 150.5 L 846 153 L 831.5 159 L 823.5 159 L 822.5 160 L 821.5 159 L 808.5 159 L 802.5 157 Q 795 154 791 147.5 L 787 139.5 L 787 122.5 Q 789.1 112.1 796.5 107 L 810.5 101 Z M 811 102 L 811 104 L 810 103 Q 797 105 792 114 L 793 116 L 792 115 L 791 118 L 791 119 L 794 118 L 794 120 L 789 120 L 788 125 L 789 137 L 789 134 L 795 135 L 795 133 L 789 133 L 789 126 L 795 126 Q 794 129 800 128 Q 801 131 803 127 L 830 128 L 824 130 L 828 130 L 830 130 L 843 130 L 843 128 Q 845 126 843 125 L 838 127 L 834 125 L 833 126 L 800 126 L 797 126 L 798 124 L 836 124 L 833 116 L 828 111 L 819 109 L 807 112 Q 801 116 800 123 L 798 123 L 803 112 L 814 108 L 821 108 L 833 112 Q 836 113 835 119 Q 838 120 836 122 L 837 125 L 843 124 L 845 124 L 845 130 L 846 130 L 845 118 L 840 110 L 839 110 L 837 110 L 839 109 Q 838 106 837 108 L 836 106 Q 827 100 811 102 Z M 804 128 L 801 130 L 806 131 L 810 130 L 819 130 L 820 131 L 823 130 L 819 128 L 816 129 L 814 128 L 811 129 Q 809 127 804 128 Z M 798 136 L 798 139 L 799 139 Q 800 135 798 136 Z M 804 146 Q 802 149 805 148 L 804 146 Z M 795 149 L 798 152 L 799 152 L 795 149 Z M 812 151 L 812 152 L 815 152 L 812 151 Z M 827 151 L 827 154 L 831 154 L 829 153 L 831 152 L 827 151 Z M 804 155 L 804 156 L 806 156 L 804 155 Z M 830 155 Q 827 159 833 157 Q 834 154 832 155 L 830 155 Z M 814 156 L 813 158 L 828 158 L 814 156 Z " /><path fill="rgb(76,115,153)" stroke="rgb(76,115,153)" stroke-width="1" opacity="0.9686274509803922" d="M 584.5 102 L 588 102.5 L 581.5 104 L 581.5 103 L 584.5 102 Z " /><path fill="rgb(76,115,153)" stroke="rgb(76,115,153)" stroke-width="1" opacity="0.9686274509803922" d="M 748.5 102 L 753 102.5 L 748.5 103 L 748.5 102 Z " /><path fill="rgb(76,115,153)" stroke="rgb(76,115,153)" stroke-width="1" opacity="0.9686274509803922" d="M 391.5 103 L 395 103.5 L 386 107.5 L 387 112 Q 384.3 113.1 385 110.5 Q 381.3 108.8 384.5 107 L 391.5 103 Z " /><path fill="rgb(76,115,153)" stroke="rgb(76,115,153)" stroke-width="1" opacity="0.9686274509803922" d="M 451 103 L 462 103 L 462 109.5 L 463.5 110 L 463.5 111 L 462 111.5 Q 464.8 112.8 464.5 117 L 466 114.5 L 465.5 113 L 467.5 114 L 467.5 112 Q 472.1 112.6 473.5 110 L 481.5 110 L 481.5 111 L 474.5 111 L 466 116.5 L 463 123.5 L 463 158 L 451.5 158 L 451 157.5 L 451 103 Z M 453 104 L 452 111 L 452 128 L 455 128 L 455 127 Q 452 128 453 126 L 453 124 L 459 121 L 459 124 L 455 125 L 458 126 L 462 125 L 464 119 L 462 112 L 459 112 L 459 104 L 453 104 Z M 453 146 Q 450 151 453 153 L 452 156 L 454 157 L 453 146 Z " /><path fill="rgb(76,115,153)" stroke="rgb(76,115,153)" stroke-width="1" opacity="0.9686274509803922" d="M 559 103 L 562 103.5 L 560 104 L 560 127.5 L 561 128.5 L 560 131.5 L 561 134.5 L 560 136.5 L 560 154.5 L 561 154.5 Q 559.9 151.2 562.5 152 L 563 156.5 L 562 160.5 L 565 161.5 L 563 165 L 567 166.5 L 564.5 170 L 563 170.5 L 570 171 L 569 164.5 L 569 162.5 L 570.5 151 L 571 172 L 559.5 172 L 559 171.5 L 559 103 Z M 561 157 L 560 160 L 561 160 L 561 157 Z " /><path fill="rgb(76,115,153)" stroke="rgb(76,115,153)" stroke-width="1" opacity="0.9686274509803922" d="M 565.5 103 L 571 103 L 571 111.5 L 570 111.5 L 570 104 L 565.5 104 L 565.5 103 Z " /><path fill="rgb(76,115,153)" stroke="rgb(76,115,153)" stroke-width="1" opacity="0.9686274509803922" d="M 732 103 Q 735.5 101.9 734 109.5 L 733 109.5 L 732 103 Z " /><path fill="rgb(76,115,153)" stroke="rgb(76,115,153)" stroke-width="1" opacity="0.9686274509803922" d="M 744.5 103 L 743.5 105 L 739.5 107 L 740.5 105 L 744.5 103 Z " /><path fill="rgb(76,115,153)" stroke="rgb(76,115,153)" stroke-width="1" opacity="0.9686274509803922" d="M 767.5 103 L 775 109.5 L 778 119.5 L 778 158 L 766.5 158 L 766 157.5 L 766 122.5 Q 764.5 116 759.5 113 L 756 111.5 L 758.5 111 L 764 115.5 L 767.5 122 L 770 122.5 L 769.5 124 Q 772.1 123.2 771 126.5 L 772.5 126 L 776 124.5 L 776 115.5 L 769.5 105 L 767.5 103 Z M 768 123 L 767 127 L 768 127 L 768 123 Z M 775 127 L 770 129 L 771 131 L 769 130 Q 770 127 767 128 L 767 136 L 769 137 L 771 133 L 771 136 L 770 141 L 774 141 L 774 140 L 773 140 Q 770 141 771 139 Q 772 135 776 136 L 777 134 L 776 132 L 777 129 L 775 127 Z M 767 139 L 767 150 L 769 149 L 768 145 L 768 143 L 769 141 Q 770 138 767 139 Z M 775 149 L 775 151 L 772 152 L 776 152 L 777 150 L 775 149 Z M 768 151 Q 767 153 770 152 L 771 153 Q 772 150 768 151 Z M 768 155 L 768 156 L 771 156 L 768 155 Z " /><path fill="rgb(76,115,153)" stroke="rgb(76,115,153)" stroke-width="1" opacity="0.9686274509803922" d="M 608.5 104 L 615 108 L 618 112.5 L 609.5 105 L 608.5 104 Z " /><path fill="rgb(76,115,153)" stroke="rgb(76,115,153)" stroke-width="1" opacity="0.9686274509803922" d="M 634.5 104 L 635 105.5 L 633 108.5 L 631 117.5 L 631 130.5 L 636 142.5 L 633 140.5 L 630 130.5 L 630 117.5 Q 632.3 116.2 631 111.5 L 634.5 104 Z " /><path fill="rgb(76,115,153)" stroke="rgb(76,115,153)" stroke-width="1" opacity="0.9686274509803922" d="M 723.5 104 L 724.5 157 L 725.5 156 L 733 156 L 733 149.5 L 734 148.5 L 733 144.5 Q 735.5 143 734 137.5 L 733 135.5 L 734 134.5 L 734 123.5 L 737.5 117 L 737 118.5 L 735 123.5 L 735 158 L 723.5 158 L 723 157.5 L 723.5 104 Z " /><path fill="rgb(76,115,153)" stroke="rgb(76,115,153)" stroke-width="1" opacity="0.9686274509803922" d="M 109.5 105 L 105.5 110 L 109.5 105 Z " /><path fill="rgb(76,115,153)" stroke="rgb(76,115,153)" stroke-width="1" opacity="0.9686274509803922" d="M 578.5 105 L 576.5 108 L 574.5 109 L 576.5 106 L 578.5 105 Z " /><path fill="rgb(76,115,153)" stroke="rgb(76,115,153)" stroke-width="1" opacity="0.9686274509803922" d="M 174.5 110 L 173.5 112 L 174.5 110 Z " /><path fill="rgb(76,115,153)" stroke="rgb(76,115,153)" stroke-width="1" opacity="0.9686274509803922" d="M 584.5 110 L 596 110.5 L 581.5 112 L 574 118.5 L 572 122.5 L 571 132.5 L 574 142.5 L 578.5 147 Q 584 151.5 595.5 150 Q 603.4 147.9 607 141.5 L 609 137.5 L 609 123.5 Q 607.5 117 602.5 114 L 597 111.5 L 598.5 111 L 608 118.5 L 611 128.5 L 610 129.5 L 610 137.5 L 602.5 148 Q 597.3 152.8 585.5 151 Q 576.4 149.1 572 142.5 L 571.5 140 L 566.5 141 L 566.5 140 L 571 138.5 L 570 132 L 567 130.5 L 568.5 131 Q 571.3 131.6 570 125.5 Q 572.4 116.4 579.5 112 L 584.5 110 Z " /><path fill="rgb(76,115,153)" stroke="rgb(76,115,153)" stroke-width="1" opacity="0.9686274509803922" d="M 747.5 110 L 755 110.5 L 747.5 111 L 747.5 110 Z " /><path fill="rgb(76,115,153)" stroke="rgb(76,115,153)" stroke-width="1" opacity="0.9686274509803922" d="M 306.5 112 L 307 115.5 L 306 115.5 L 306.5 112 Z " /><path fill="rgb(76,115,153)" stroke="rgb(76,115,153)" stroke-width="1" opacity="0.9686274509803922" d="M 454.5 112 L 457.5 113 L 459 113.5 L 457.5 114 L 455.5 114 L 454.5 112 Z " /><path fill="rgb(76,115,153)" stroke="rgb(76,115,153)" stroke-width="1" opacity="0.9686274509803922" d="M 485.5 112 L 491 118.5 L 490 118.5 L 485.5 112 Z " /><path fill="rgb(76,115,153)" stroke="rgb(76,115,153)" stroke-width="1" opacity="0.9686274509803922" d="M 644.5 112 L 645 113.5 L 643 120.5 L 643 126.5 Q 644.9 136.2 650 142 L 657.5 147 L 666.5 150 L 677.5 150 Q 688 148 694 141.5 Q 700.2 135.7 700.5 124 L 702 127.5 L 699 135.5 L 699.5 137 L 697 138.5 L 696 140.5 L 698 141.5 L 698.5 139 L 699 141.5 L 698.5 144 L 696.5 144 L 695 143.5 L 696 141.5 L 690.5 146 L 682.5 150 L 670.5 152 L 653.5 146 L 648 140.5 L 642 127.5 L 642 118.5 L 644.5 112 Z " /><path fill="rgb(76,115,153)" stroke="rgb(76,115,153)" stroke-width="1" opacity="0.9686274509803922" d="M 741.5 113 L 740.5 115 L 738.5 116 L 739.5 114 L 741.5 113 Z " /><path fill="rgb(76,115,153)" stroke="rgb(76,115,153)" stroke-width="1" opacity="0.9686274509803922" d="M 170.5 114 L 167.5 118 L 170.5 114 Z " /><path fill="rgb(76,115,153)" stroke="rgb(76,115,153)" stroke-width="1" opacity="0.9686274509803922" d="M 618.5 114 Q 623.1 118.4 622 128.5 L 621 128.5 L 621 121.5 L 618.5 114 Z " /><path fill="rgb(76,115,153)" stroke="rgb(76,115,153)" stroke-width="1" opacity="0.9686274509803922" d="M 700.5 114 L 702 121.5 L 701 121.5 L 700.5 114 Z " /><path fill="rgb(76,115,153)" stroke="rgb(76,115,153)" stroke-width="1" opacity="0.9686274509803922" d="M 455 116 Q 458.7 114.5 458 117.5 L 459 120 L 454.5 121 L 453 117.5 L 455 117.5 L 455 116 Z " /><path fill="rgb(76,115,153)" stroke="rgb(76,115,153)" stroke-width="1" opacity="0.9686274509803922" d="M 461.5 117 L 462 118.5 L 460 119.5 L 461.5 117 Z " /><path fill="rgb(76,115,153)" stroke="rgb(76,115,153)" stroke-width="1" opacity="0.9686274509803922" d="M 774.5 117 L 775 120 Q 772.3 121.1 773 118.5 L 774.5 117 Z " /><path fill="rgb(76,115,153)" stroke="rgb(76,115,153)" stroke-width="1" opacity="0.9686274509803922" d="M 305.5 118 L 306 126.5 L 305 126.5 L 305.5 118 Z " /><path fill="rgb(76,115,153)" stroke="rgb(76,115,153)" stroke-width="1" opacity="0.9686274509803922" d="M 164.5 120 L 163.5 122 L 164.5 120 Z " /><path fill="rgb(76,115,153)" stroke="rgb(76,115,153)" stroke-width="1" opacity="0.9686274509803922" d="M 499.5 122 L 500 124.5 L 499 124.5 L 499.5 122 Z " /><path fill="rgb(76,115,153)" stroke="rgb(76,115,153)" stroke-width="1" opacity="0.9686274509803922" d="M 158.5 127 L 155.5 131 L 158.5 127 Z " /><path fill="rgb(76,115,153)" stroke="rgb(76,115,153)" stroke-width="1" opacity="0.9686274509803922" d="M 401.5 127 L 403 127.5 L 400.5 129 L 401.5 127 Z " /><path fill="rgb(76,115,153)" stroke="rgb(76,115,153)" stroke-width="1" opacity="0.9686274509803922" d="M 87.5 128 L 85.5 131 L 87.5 128 Z " /><path fill="rgb(76,115,153)" stroke="rgb(76,115,153)" stroke-width="1" opacity="0.9686274509803922" d="M 306.5 128 L 307 132.5 L 306 132.5 L 306.5 128 Z " /><path fill="rgb(76,115,153)" stroke="rgb(76,115,153)" stroke-width="1" opacity="0.9686274509803922" d="M 319.5 128 L 320 130.5 L 319 130.5 L 319.5 128 Z " /><path fill="rgb(76,115,153)" stroke="rgb(76,115,153)" stroke-width="1" opacity="0.9686274509803922" d="M 849.5 128 L 850 130.5 L 849 130.5 L 849.5 128 Z " /><path fill="rgb(76,115,153)" stroke="rgb(76,115,153)" stroke-width="1" opacity="0.9686274509803922" d="M 384.5 129 L 385.5 131 L 384.5 129 Z " /><path fill="rgb(76,115,153)" stroke="rgb(76,115,153)" stroke-width="1" opacity="0.9686274509803922" d="M 410.5 129 L 418 130.5 L 411.5 131 L 410.5 129 Z " /><path fill="rgb(76,115,153)" stroke="rgb(76,115,153)" stroke-width="1" opacity="0.9686274509803922" d="M 407.5 130 L 409 130.5 L 401.5 133 L 397 136.5 L 395.5 140 L 395 138.5 L 398 134.5 L 397.5 133 L 407.5 130 Z " /><path fill="rgb(76,115,153)" stroke="rgb(76,115,153)" stroke-width="1" opacity="0.9686274509803922" d="M 779.5 130 L 780 132.5 L 779 132.5 L 779.5 130 Z " /><path fill="rgb(76,115,153)" stroke="rgb(76,115,153)" stroke-width="1" opacity="0.9686274509803922" d="M 320.5 132 Q 323.5 141 331 145.5 L 322 137.5 L 320.5 132 Z " /><path fill="rgb(76,115,153)" stroke="rgb(76,115,153)" stroke-width="1" opacity="0.9686274509803922" d="M 621.5 132 L 622 138.5 Q 618.9 149.4 610.5 155 Q 601.8 161.3 584.5 159 Q 576.2 157.8 573 151.5 L 576.5 154 L 584.5 158 L 600.5 158 Q 610.6 155.6 616 148.5 Q 620.9 142.4 621.5 132 Z " /><path fill="rgb(76,115,153)" stroke="rgb(76,115,153)" stroke-width="1" opacity="0.9686274509803922" d="M 567 133 Q 570.3 131.9 569 136 Q 565.7 137.1 567 133 Z " /><path fill="rgb(76,115,153)" stroke="rgb(76,115,153)" stroke-width="1" opacity="0.9686274509803922" d="M 307.5 135 L 312 142.5 L 309 140.5 L 307.5 135 Z " /><path fill="rgb(76,115,153)" stroke="rgb(76,115,153)" stroke-width="1" opacity="0.9686274509803922" d="M 779.5 137 L 780 141.5 L 779 141.5 L 779.5 137 Z " /><path fill="rgb(76,115,153)" stroke="rgb(76,115,153)" stroke-width="1" opacity="0.9686274509803922" d="M 537.5 138 L 539 143.5 L 537 144 L 537.5 138 Z " /><path fill="rgb(76,115,153)" stroke="rgb(76,115,153)" stroke-width="1" opacity="0.9686274509803922" d="M 145.5 141 L 143.5 144 L 145.5 141 Z " /><path fill="rgb(76,115,153)" stroke="rgb(76,115,153)" stroke-width="1" opacity="0.9686274509803922" d="M 562.5 142 L 565 143.5 L 562.5 145 Q 559.5 143.5 562.5 142 Z " /><path fill="rgb(76,115,153)" stroke="rgb(76,115,153)" stroke-width="1" opacity="0.9686274509803922" d="M 569.5 142 Q 571.8 141.3 571 143.5 L 568 143.5 L 569.5 142 Z " /><path fill="rgb(76,115,153)" stroke="rgb(76,115,153)" stroke-width="1" opacity="0.9686274509803922" d="M 370.5 143 L 373 144.5 L 374 148.5 L 372 147.5 L 370.5 144 L 366.5 147 L 354.5 150 L 354.5 149 L 366.5 146 L 370.5 143 Z " /><path fill="rgb(76,115,153)" stroke="rgb(76,115,153)" stroke-width="1" opacity="0.9686274509803922" d="M 312.5 144 Q 318.6 151.9 329 155.5 L 327.5 156 Q 317 152 312.5 144 Z " /><path fill="rgb(76,115,153)" stroke="rgb(76,115,153)" stroke-width="1" opacity="0.9686274509803922" d="M 779.5 145 L 780 149.5 L 779 149.5 L 779.5 145 Z " /><path fill="rgb(76,115,153)" stroke="rgb(76,115,153)" stroke-width="1" opacity="0.9686274509803922" d="M 335.5 147 L 339 148.5 L 337.5 149 L 335.5 147 Z " /><path fill="rgb(76,115,153)" stroke="rgb(76,115,153)" stroke-width="1" opacity="0.9686274509803922" d="M 341.5 149 L 345 149.5 L 341.5 150 L 341.5 149 Z " /><path fill="rgb(76,115,153)" stroke="rgb(76,115,153)" stroke-width="1" opacity="0.9686274509803922" d="M 346.5 150 L 350 150.5 L 346.5 151 L 346.5 150 Z " /><path fill="rgb(76,115,153)" stroke="rgb(76,115,153)" stroke-width="1" opacity="0.9686274509803922" d="M 373.5 150 L 374 151.5 L 368.5 155 L 369.5 153 L 373 152 L 373.5 150 Z " /><path fill="rgb(76,115,153)" stroke="rgb(76,115,153)" stroke-width="1" opacity="0.9686274509803922" d="M 162.5 152 L 163 154 L 161 153.5 L 162.5 152 Z " /><path fill="rgb(76,115,153)" stroke="rgb(76,115,153)" stroke-width="1" opacity="0.9686274509803922" d="M 407.5 155 L 408.5 157 L 407.5 155 Z " /><path fill="rgb(76,115,153)" stroke="rgb(76,115,153)" stroke-width="1" opacity="0.9686274509803922" d="M 131.5 156 L 129 159.5 L 129.5 161 L 127 160.5 L 131.5 156 Z " /><path fill="rgb(76,115,153)" stroke="rgb(76,115,153)" stroke-width="1" opacity="0.9686274509803922" d="M 330.5 156 L 337 157.5 L 333.5 158 L 330.5 157 L 330.5 156 Z " /><path fill="rgb(76,115,153)" stroke="rgb(76,115,153)" stroke-width="1" opacity="0.9686274509803922" d="M 362.5 156 L 364 156.5 L 358.5 158 L 358.5 157 L 362.5 156 Z " /><path fill="rgb(76,115,153)" stroke="rgb(76,115,153)" stroke-width="1" opacity="0.9686274509803922" d="M 338.5 158 L 357 158.5 L 338.5 159 L 338.5 158 Z " /><path fill="rgb(76,115,153)" stroke="rgb(76,115,153)" stroke-width="1" opacity="0.9686274509803922" d="M 151.5 163 L 153 167.5 L 151.5 167 L 150 166.5 L 151.5 163 Z " /></svg>